<svg width="100" height="100" viewBox="0 0 100 100" fill="none" xmlns="http://www.w3.org/2000/svg">
    <path stroke="null" id="svg_1" d="m49.88034,1.07157l-49.04614,16.23603l7.75066,60.44885l41.34703,21.37763l41.56024,-21.66736l7.74832,-60.44662l-49.36011,-15.94853z" fill="#bdbdbd"/>
    <path stroke="null" id="svg_2" d="m94.12801,20.07563l-44.09068,-14.24581l0,88.1671l37.09447,-19.3406l6.99622,-54.5807z" fill="#b71c1c"/>
    <path stroke="null" id="svg_3" d="m49.89909,5.78525l-43.95479,14.55114l6.99856,54.60076l36.97966,19.11773l0.11481,-0.05795l0,-88.1671l-0.13824,-0.04457z" fill="#dd2c00"/>
    <path stroke="null" id="svg_4" d="m50.03732,9.97742l0,21.19042l20.0983,41.22191l10.33031,0l-30.42862,-62.41233z" fill="#bdbdbd"/>
    <path stroke="null" id="svg_5" d="m19.60871,72.38975l10.33031,0l20.0983,-41.22191l0,-21.19042l-30.42862,62.41233z" fill="#eee"/>
    <path stroke="null" id="svg_6" d="m50.03732,50.10282l14.05804,0l0,8.91477l-14.05804,0l0,-8.91477z" fill="#bdbdbd"/>
    <path stroke="null" id="svg_7" d="m35.97929,50.10282l14.05804,0l0,8.91477l-14.05804,0l0,-8.91477z" fill="#eee"/>
</svg>