<svg width="100" height="100" viewBox="0 0 100 100" fill="none" xmlns="http://www.w3.org/2000/svg">
    <path stroke="null" fill="#2196F3" d="m84.53043,72.21066l-2.87364,16.09386c0,5.62008 -14.65555,10.21832 -31.61001,10.21832s-31.61001,-4.59824 -31.61001,-10.21832l-2.87364,-16.09386c-0.28736,-1.02183 0.86209,-2.04366 2.29891,-1.53275c8.62091,3.32095 20.69019,4.8537 32.18474,4.8537s23.56383,-1.53275 32.18474,-4.8537c1.14946,-0.51092 2.58627,0.51092 2.29891,1.53275zm14.36819,-57.98897c0,0.51092 0,0.76637 -0.28736,1.27729l-8.33355,42.15057c0,7.15282 -17.81655,12.7729 -39.94356,12.7729c-22.12701,0 -40.51829,-5.62008 -40.51829,-12.7729l-8.33355,-42.15057c-0.28736,-0.51092 -0.28736,-0.76637 -0.28736,-1.27729c0,-7.15282 21.83965,-12.7729 48.85184,-12.7729s48.85184,5.62008 48.85184,12.7729zm-34.48365,33.20954c0,-7.15282 -6.322,-12.7729 -14.36819,-12.7729s-14.36819,5.62008 -14.36819,12.7729s6.322,12.7729 14.36819,12.7729s14.36819,-5.62008 14.36819,-12.7729zm19.54074,-33.20954c0,-4.34279 -15.23028,-7.66374 -33.90892,-7.66374s-33.90892,3.32095 -33.90892,7.66374s15.23028,7.66374 33.90892,7.66374s33.90892,-3.32095 33.90892,-7.66374zm-33.90892,38.3187c3.161,0 5.74728,-2.29912 5.74728,-5.10916s-2.58627,-5.10916 -5.74728,-5.10916s-5.74728,2.29912 -5.74728,5.10916s2.58627,5.10916 5.74728,5.10916z" id="svg_1"/>
</svg>