<svg width="100" height="100" viewBox="0 0 100 100" fill="none" xmlns="http://www.w3.org/2000/svg">
    <path stroke="null" fill="#0277BD" d="m94.97703,2.38216l-88.99985,0l7.85293,86.40589l36.647,10.1654l36.647,-10.1654l7.85293,-86.40589l0,0z" id="svg_1"/>
    <path stroke="null" fill="#039BE5" d="m50.4771,10.0062l0,81.06905l29.3176,-8.13232l6.54411,-72.93673l-35.8617,0z" id="svg_2"/>
    <path stroke="null" fill="#FFF" d="m74.29765,22.71295l-23.82055,0l0,10.1654l12.82645,0l-0.78529,10.1654l-12.04116,0l0,10.1654l11.51763,0l-0.78529,11.43607l-10.73233,3.55789l0,10.67367l20.67938,-6.60751l1.83235,-29.22552l0,0l1.30882,-20.3308z" id="svg_3"/>
    <path stroke="null" fill="#EEE" d="m50.4771,22.71295l0,10.1654l-23.29702,0l-0.78529,-10.1654l24.08231,0zm-12.04116,20.3308l0.52353,10.1654l11.51763,0l0,-10.1654l-12.04116,0zm1.04706,15.2481l-10.47057,0l0.78529,13.97742l20.67938,6.60751l0,-10.67367l-10.73233,-3.55789l-0.26176,-6.35337z" id="svg_4"/>
</svg>