<svg width="100" height="100" viewBox="0 0 100 100" fill="none" xmlns="http://www.w3.org/2000/svg">
    <path stroke="null" id="svg_1" d="m40.05605,36.34348l0,9.54545l-19.66031,0l0,9.54545l-9.83016,0l0,9.54545l-7.61837,0c-0.93693,0.01491 -1.72796,0.66371 -1.90459,1.55114c0,0 -0.30719,1.63317 -0.30719,3.69886c0,1.3125 0.13823,2.73685 0.36863,4.17614c-0.11519,0.02984 -0.2688,0.09694 -0.36863,0.11932l0.36863,0c0.5683,3.45276 1.87388,7.12927 4.05494,10.61932c0.00769,0.01491 -0.00769,0.04475 0,0.05966c0.01535,0.03728 0.0384,0.08203 0.06144,0.11932c0.09984,0.4549 0.36094,0.8576 0.73726,1.13352c0.0384,0.02237 0.08448,0.04475 0.12288,0.05966c0.6067,0.85014 1.24412,1.70029 1.96603,2.50568c5.26067,5.89134 13.80061,10.32102 26.11135,10.32102c20.09807,0 37.09348,-8.31499 46.69324,-24.81818l17.8786,0c-2.13499,-0.52202 -6.71984,-1.223 -5.95953,-3.9375c-2.54202,2.85617 -7.3803,3.21413 -11.12036,2.56534c0.71422,-1.3125 1.4054,-2.64737 2.02747,-4.05682c5.68307,-0.14169 9.76103,-1.91656 12.04194,-4.05682c2.49594,-2.34161 3.25624,-4.9517 3.25624,-4.9517c0.192,-0.73082 -0.06913,-1.49894 -0.67582,-1.96875c0,0 -4.96883,-3.51989 -12.41057,-2.3267c-2.11962,-6.74894 -7.61837,-10.02273 -7.61837,-10.02273c-0.40703,-0.23117 -0.88318,-0.32067 -1.35165,-0.23864c-0.31488,0.06712 -0.61438,0.20882 -0.86014,0.41761c0,0 -1.31325,1.08877 -2.3961,3.04261c-1.08285,1.95384 -2.08122,4.92933 -1.72028,8.76989c0.16896,1.79724 0.75262,3.50498 1.5974,5.13068c-0.47615,0.28339 -0.75262,0.52202 -1.53596,0.83523c-1.62811,0.65625 -4.00119,1.25284 -7.37262,1.25284l-0.98302,0l0,-9.54545l-9.83016,0l0,-19.09091l-13.76222,0zm3.93206,3.81818l5.89809,0l0,5.72727l-5.89809,0l0,-5.72727zm-19.66031,9.54545l5.89809,0l0,5.72727l-5.89809,0l0,-5.72727zm9.83016,0l5.89809,0l0,5.72727l-5.89809,0l0,-5.72727zm9.83016,0l5.89809,0l0,5.72727l-5.89809,0l0,-5.72727zm33.60684,0.41761c1.45917,1.05149 4.10102,3.25143 5.03795,8.05398c0.09984,0.52947 0.42238,0.98438 0.89087,1.26775c0.46847,0.28339 1.03677,0.36542 1.56667,0.22373c5.01491,-1.33487 7.72589,-0.23864 9.21577,0.59659c-0.28415,0.60406 -0.23807,0.97692 -1.35165,2.02841c-1.7894,1.67792 -4.82291,3.37075 -10.50598,3.16193c-0.82941,-0.02982 -1.58971,0.44745 -1.90459,1.19318c-0.78335,1.90163 -1.68955,3.66158 -2.64185,5.36932c-0.29184,-0.16407 -0.53759,-0.35795 -0.73726,-0.53693c-2.63417,3.70633 -17.91699,2.28942 -18.98449,-0.59659c-3.29464,3.75852 -13.53182,3.75852 -16.83414,0c-1.0675,2.88601 -16.41176,4.30292 -19.04593,0.59659c-2.3577,2.14773 -11.66562,3.46769 -15.54393,-0.89489c0.36863,1.3125 -0.58366,2.16264 -1.84315,2.74432c-0.16127,-1.08877 -0.24575,-2.12535 -0.24575,-3.10227c0,-0.82032 0.06144,-0.89489 0.12288,-1.43182l59.84107,0c3.87062,0 6.77359,-0.71591 8.84714,-1.55114c2.07355,-0.83523 3.54808,-1.84943 3.74775,-1.96875c0.47615,-0.29083 0.7987,-0.76066 0.89087,-1.29759c0.09215,-0.52947 -0.05377,-1.08131 -0.39936,-1.50639c-1.09054,-1.37962 -1.65884,-3.10974 -1.84315,-5.07102c-0.28415,-3.0799 0.4608,-5.23509 1.22877,-6.62216c0.26111,-0.46981 0.27648,-0.37286 0.49151,-0.65625zm-63.09731,9.12784l5.89809,0l0,5.72727l-5.89809,0l0,-5.72727zm9.83016,0l5.89809,0l0,5.72727l-5.89809,0l0,-5.72727zm9.83016,0l5.89809,0l0,5.72727l-5.89809,0l0,-5.72727zm9.83016,0l5.89809,0l0,5.72727l-5.89809,0l0,-5.72727zm9.83016,0l5.89809,0l0,5.72727l-5.89809,0l0,-5.72727zm-48.65927,15.27273l71.26863,0c-9.02377,14.15411 -24.00709,21 -42.26967,21c-10.75173,0 -17.72499,-3.54226 -22.30217,-8.23295c8.72426,0.4027 15.48249,-1.84943 15.48249,-1.84943c1.08285,-0.13423 1.85851,-1.09624 1.72028,-2.14773c-0.13823,-1.05149 -1.12893,-1.80468 -2.21178,-1.67045c-0.10752,0.01491 -0.20736,0.02984 -0.30719,0.05966c-0.16896,0.02237 -0.33023,0.05966 -0.49151,0.11932c0,0 -8.04075,2.66228 -17.44853,1.37216c-1.76636,-2.82635 -2.87992,-5.85405 -3.44055,-8.65057zm27.03293,3.81818c-1.08285,0 -1.96603,0.8576 -1.96603,1.90909c0,1.05149 0.88318,1.90909 1.96603,1.90909c1.08285,0 1.96603,-0.8576 1.96603,-1.90909c0,-0.26101 -0.02304,-0.49218 -0.12288,-0.71591c-0.13823,0.23864 -0.43776,0.41761 -0.73726,0.41761c-0.44542,0 -0.7987,-0.4027 -0.7987,-0.83523c0,-0.29083 0.192,-0.52202 0.43007,-0.65625c-0.22271,-0.08203 -0.48382,-0.11932 -0.73726,-0.11932z" fill="#ffffff"/>
</svg>