<svg width="100" height="100" viewBox="0 0 100 100" fill="none" xmlns="http://www.w3.org/2000/svg">
    <path stroke="null" fill="#ffffff" id="svg_1" d="m96.88416,45.75095l-43.30934,-43.36644c-2.09219,-2.09498 -5.48166,-2.09498 -7.57389,0l-9.0594,9.05037l9.39416,9.40655c1.0461,-0.48188 2.21776,-0.79612 3.4522,-0.79612c4.43556,0 8.03419,3.60343 8.03419,8.04478c0,1.23607 -0.3138,2.38827 -0.81595,3.45675l10.7541,10.74734c1.0461,-0.48188 2.21776,-0.79612 3.4522,-0.79612c4.43556,0 8.03419,3.60343 8.03419,8.04478c0,4.44142 -3.59862,8.04478 -8.03419,8.04478c-4.43553,0 -8.03419,-3.60336 -8.03419,-8.04478c0,-1.23607 0.29292,-2.38827 0.79506,-3.45675l-10.7541,-10.74734c-0.23015,0.10475 -0.50214,0.20953 -0.75321,0.2933l0,27.82154c3.09655,1.11034 5.35613,4.04337 5.35613,7.54199c0,4.44142 -3.59862,8.04478 -8.03419,8.04478c-4.43553,0 -8.03419,-3.60336 -8.03419,-8.04478c0,-3.49861 2.23869,-6.45256 5.35613,-7.54199l0,-27.82154c-3.11744,-1.11034 -5.35613,-4.04337 -5.35613,-7.54199c0,-1.23607 0.29292,-2.38827 0.79506,-3.45675l-9.39416,-9.38557l-30.46298,30.50314c-2.09219,2.09498 -2.09219,5.48891 0,7.58389l43.30934,43.36644c2.09219,2.09498 5.48166,2.09498 7.57389,0l43.30934,-43.36644c2.09219,-2.09498 2.09219,-5.48891 0,-7.58389l-0.00007,0.00007z"/>
</svg>