<svg width="100" height="100" viewBox="0 0 100 100" fill="none" xmlns="http://www.w3.org/2000/svg">
    <path stroke="null" id="svg_1" d="m44.18538,1.89402c-22.32341,2.48562 -40.2792,20.87919 -42.70565,43.24975c-2.91175,24.85618 12.13228,46.2325 33.48512,53.19223l0,-11.43384c0,0 -1.94116,0.49713 -4.36762,0.49713c-6.79407,0 -9.70583,-5.96547 -10.19112,-9.44535c-0.4853,-1.98849 -1.45587,-3.47986 -2.91175,-4.97124c-1.45587,-0.49713 -1.94116,-0.49713 -1.94116,-0.99426c0,-0.99426 1.45587,-0.99426 1.94116,-0.99426c2.91175,0 5.33821,3.47986 6.3088,4.97124c2.42646,3.97698 5.33821,4.97124 6.79407,4.97124c1.94116,0 3.39705,-0.49713 4.36762,-0.99426c0.4853,-3.47986 1.94116,-6.95973 4.85291,-8.94822c-11.16171,-2.48562 -19.41165,-8.94822 -19.41165,-19.88494c0,-5.46837 2.42646,-10.93671 5.8235,-14.91372c-0.4853,-0.99426 -0.97059,-3.47986 -0.97059,-6.95973c0,-1.98849 0,-4.97124 1.45587,-7.95399c0,0 6.79407,0 13.58817,6.4626c2.42646,-0.99426 5.8235,-1.49136 9.22053,-1.49136s6.79407,0.49713 9.70583,1.49136c6.3088,-6.4626 13.58817,-6.4626 13.58817,-6.4626c0.97059,2.98275 0.97059,5.96547 0.97059,7.95399c0,3.97698 -0.4853,5.96547 -0.97059,6.95973c3.39705,3.97698 5.8235,8.94822 5.8235,14.91372c0,10.93671 -8.24996,17.39932 -19.41165,19.88494c2.91175,2.48562 4.85291,6.95973 4.85291,11.43384l0,16.40508c19.89695,-6.4626 33.97042,-25.35331 33.97042,-47.22674c0,-29.82742 -24.74986,-53.19223 -53.86737,-49.71235l-0.00002,0z" fill="#ffffff"/>
</svg>