<svg width="100" height="100" viewBox="0 0 100 100" fill="none" xmlns="http://www.w3.org/2000/svg">
    <path stroke="null" id="svg_1" d="m94.87943,2.73118l-89.75748,0l7.91978,86.05733l36.95896,10.12439l36.95896,-10.12439l7.91978,-86.05733l0,0z" fill="#E65100"/>
    <path stroke="null" id="svg_2" d="m50.00069,10.32447l0,80.74203l29.56717,-8.09951l6.59981,-72.64251l-36.16698,0z" fill="#FF6D00"/>
    <path stroke="null" id="svg_3" d="m50.00069,53.35314l0,-10.12439l22.70336,0l-1.84795,29.10763l-20.85541,6.58085l0,-10.63061l10.8237,-3.54354l0.79198,-11.38994l-11.61567,0zm23.49534,-20.24878l0.79198,-10.12439l-24.28732,0l0,10.12439l23.49534,0z" fill="#FFF"/>
    <path stroke="null" id="svg_4" d="m50.00069,68.28662l0,10.63061l-20.85541,-6.58085l-1.05597,-13.92104l10.5597,0l0.52799,6.32775l10.8237,3.54354zm-12.93564,-35.18226l12.93564,0l0,-10.12439l-24.02333,0l1.84795,30.37318l22.17538,0l0,-10.12439l-12.14366,0l-0.79198,-10.12439z" fill="#EEE"/>
</svg>