<svg width="100" height="100" viewBox="0 0 100 100" fill="none" xmlns="http://www.w3.org/2000/svg">
    <path stroke="null" id="svg_1" d="m58.03823,0.41152c6.97177,12.65644 -24.99536,20.47251 -27.96629,31.01566c-2.72336,9.68851 18.99411,20.94645 19.0139,20.94645c-3.29773,-4.00903 -5.72397,-7.31105 -9.0316,-13.54993c-5.59523,-10.55093 34.07649,-20.09959 17.98399,-38.41218zm21.23219,17.52787c0,0 -28.04553,1.41404 -29.47157,15.47675c-0.63379,6.26218 7.37782,9.55644 7.60556,14.10933c0.18817,3.72157 -4.75348,6.83712 -4.75348,6.83712c0,0 8.99202,-1.34412 11.80446,-7.02359c3.11949,-6.30102 -6.08049,-10.55869 -5.14961,-15.60106c0.89128,-4.82483 19.9646,-13.79854 19.9646,-13.79854l0.00003,0zm-44.0489,32.50739c0,0 -25.66879,-0.28746 -25.66879,5.40753c0,5.95142 33.60115,6.39424 57.59631,2.73484c0,0 6.37758,-3.44187 8.08093,-4.72382c-15.72607,2.5173 -51.57525,2.797 -51.57525,0.62157c0,-2.0045 11.5668,-4.04011 11.5668,-4.04011zm49.35693,0c-2.51538,0.15539 -5.22882,0.91681 -7.6848,2.29977c5.7834,-0.97895 10.69534,1.83359 10.69534,5.03461c0,7.21004 -13.30975,13.98502 -13.30975,13.98502c0,0 20.5984,-1.83357 20.5984,-13.67424c0,-5.37645 -4.76338,-7.98698 -10.29921,-7.64514l0.00003,-0.00002zm-55.53645,11.06371c-3.94142,0 -9.82385,2.42408 -9.82385,4.72382c0,4.62282 29.63002,8.18124 51.57525,1.42958l-7.60556,-3.66719c-14.87442,3.73711 -42.26632,2.5173 -34.14581,-2.48622l-0.00003,0zm3.64433,10.38c-5.3972,0 -8.95239,2.55617 -8.95239,4.47521c0,5.93587 32.23451,6.53412 44.9996,0.49723l-8.08093,-4.04011c-9.53668,3.16217 -33.47238,3.64386 -27.96629,-0.93233zm-17.98399,5.34539c-8.79393,-0.13985 -14.49812,2.96015 -14.49812,5.53184c0,13.67424 89.99917,13.04491 89.99917,-0.93233c0,-2.32307 -3.41658,-3.44963 -4.67424,-3.97797c7.35797,13.36345 -73.6789,12.29903 -73.6789,4.41304c0,-1.79473 5.96164,-3.51177 11.48758,-2.6727l-4.67424,-2.11329c-1.37654,-0.16315 -2.70355,-0.22532 -3.96124,-0.24862l-0.00003,0.00002zm85.00802,9.19903c-13.68605,10.17798 -48.36662,13.86847 -83.2651,7.58299c34.88856,11.20356 83.09672,4.91808 83.2651,-7.58299z" fill="#ffffff"/>
</svg>