<svg width="100" height="100" viewBox="0 0 100 100" fill="none" xmlns="http://www.w3.org/2000/svg">
    <path stroke="null" id="svg_1" d="m7.56227,1.34704c-3.37604,0 -6.16531,2.79524 -6.16531,6.1785l0,84.90682c0,3.38324 2.78929,6.1785 6.16531,6.1785l84.72568,0c3.37604,0 6.16531,-2.78619 6.16531,-6.1785l0,-84.90682c0,-3.38324 -2.78024,-6.1785 -6.16531,-6.1785l-84.72568,0zm0,4.63162l84.72568,0c0.85757,0 1.5436,0.68752 1.5436,1.54689l0,84.90682c0,0.85939 -0.68603,1.54689 -1.5436,1.54689l-84.72568,0c-0.85754,0 -1.5436,-0.6875 -1.5436,-1.54689l0,-84.90682c0,-0.85937 0.68605,-1.54689 1.5436,-1.54689zm37.74112,39.36868l0,29.11943c0,4.46879 -1.68802,5.61763 -4.62174,5.61763c-3.06911,0 -5.19944,-1.91776 -6.60762,-4.40546l-7.25758,4.40546c2.10326,4.45973 7.25758,9.26321 14.4068,9.26321c7.90747,0 13.32357,-4.21548 13.32357,-13.46967l0,-30.53063l-9.24346,0l0.00002,0.00002zm28.77751,0c-7.87137,0 -12.91738,5.04773 -12.91738,11.67853c0,7.19165 4.23357,10.59301 10.59748,13.30682l2.20254,0.94986c4.01695,1.764 6.00283,2.84048 6.00283,5.87095c0,2.52386 -1.91367,4.35117 -5.56955,4.35117c-4.35093,0 -6.40902,-2.95806 -8.29564,-6.05184l-6.93259,4.63162c2.59069,5.12913 7.2395,9.26321 15.42683,9.26321c8.37688,0 14.61441,-4.36021 14.61441,-12.31176c0,-7.38163 -4.22454,-10.66534 -11.72584,-13.88578l-2.20254,-0.94079c-3.78223,-1.6464 -5.42513,-2.71381 -5.42513,-5.36436c0,-2.14392 1.64288,-3.79029 4.22456,-3.79029c2.53652,0 4.16135,1.07648 5.66883,3.79029l6.86943,-4.4145c-2.89762,-5.12913 -6.93259,-7.08309 -12.53824,-7.08309l0,-0.00002z" fill="#ffffff"/>
</svg>