<svg width="100" height="100" viewBox="0 0 100 100" fill="none" xmlns="http://www.w3.org/2000/svg">
    <path stroke="null" id="svg_1" d="m54.42721,52.01212c0.23978,0.31351 0.34086,0.76582 0.27269,1.18463l-0.64881,2.89097c-0.06817,0.45231 -0.37612,0.80172 -0.74989,1.00992l-2.62815,1.25403c-0.37612,0.20821 -0.85332,0.20821 -1.22945,0l-2.62815,-1.25403c-0.37612,-0.20821 -0.68172,-0.55761 -0.74989,-1.00992l-0.64881,-2.89097c-0.06817,-0.41881 0.03526,-0.87112 0.27269,-1.18463l1.84299,-2.33336c0.23743,-0.34941 0.64881,-0.55761 1.09075,-0.55761l2.86792,0c0.44429,0 0.85332,0.20821 1.0931,0.55761l1.84299,2.33336z" fill="#0277bd"/>
    <path stroke="null" id="svg_2" d="m53.10373,30.76541l0.11284,0.89745c0.315,2.48173 0.54067,4.98979 0.76635,7.47153c0.08933,0.98839 0.18101,1.95523 0.24683,2.94362c0.04466,0.75864 0.87918,1.14873 1.48803,0.71317c0.76635,-0.57436 1.5562,-1.14873 2.36721,-1.70156c2.0287,-1.40241 4.0339,-2.80481 6.10727,-4.16175l0.76635,-0.48342c-3.22289,-2.98909 -7.32496,-5.03527 -11.85487,-5.67903zm0,0l0.11284,0.89745c0.315,2.48173 0.54067,4.98979 0.76635,7.47153c0.08933,0.98839 0.18101,1.95523 0.24683,2.94362c0.04466,0.75864 0.87918,1.14873 1.48803,0.71317c0.76635,-0.57436 1.5562,-1.14873 2.36721,-1.70156c2.0287,-1.40241 4.0339,-2.80481 6.10727,-4.16175l0.76635,-0.48342c-3.22289,-2.98909 -7.32496,-5.03527 -11.85487,-5.67903zm0,0l0.11284,0.89745c0.315,2.48173 0.54067,4.98979 0.76635,7.47153c0.08933,0.98839 0.18101,1.95523 0.24683,2.94362c0.04466,0.75864 0.87918,1.14873 1.48803,0.71317c0.76635,-0.57436 1.5562,-1.14873 2.36721,-1.70156c2.0287,-1.40241 4.0339,-2.80481 6.10727,-4.16175l0.76635,-0.48342c-3.22289,-2.98909 -7.32496,-5.03527 -11.85487,-5.67903zm0,0l0.11284,0.89745c0.315,2.48173 0.54067,4.98979 0.76635,7.47153c0.08933,0.98839 0.18101,1.95523 0.24683,2.94362c0.04466,0.75864 0.87918,1.14873 1.48803,0.71317c0.76635,-0.57436 1.5562,-1.14873 2.36721,-1.70156c2.0287,-1.40241 4.0339,-2.80481 6.10727,-4.16175l0.76635,-0.48342c-3.22289,-2.98909 -7.32496,-5.03527 -11.85487,-5.67903zm0,0l0.11284,0.89745c0.315,2.48173 0.54067,4.98979 0.76635,7.47153c0.08933,0.98839 0.18101,1.95523 0.24683,2.94362c0.04466,0.75864 0.87918,1.14873 1.48803,0.71317c0.76635,-0.57436 1.5562,-1.14873 2.36721,-1.70156c2.0287,-1.40241 4.0339,-2.80481 6.10727,-4.16175l0.76635,-0.48342c-3.22289,-2.98909 -7.32496,-5.03527 -11.85487,-5.67903zm16.0016,10.78131l-0.60885,0.6677c-1.69019,1.84036 -3.42505,3.60893 -5.16226,5.37988c-1.10486,1.14873 -2.29904,2.25199 -3.44856,3.37918c1.53269,0.39009 3.06539,0.80411 4.59808,1.2636c2.36721,0.68924 4.71092,1.35694 7.05462,2.13712l0.83452,0.27522c0.02351,-0.36855 0.02351,-0.75864 0.02351,-1.14873c0,-4.3891 -1.19418,-8.48145 -3.29106,-11.95397zm0,0l-0.60885,0.6677c-1.69019,1.84036 -3.42505,3.60893 -5.16226,5.37988c-1.10486,1.14873 -2.29904,2.25199 -3.44856,3.37918c1.53269,0.39009 3.06539,0.80411 4.59808,1.2636c2.36721,0.68924 4.71092,1.35694 7.05462,2.13712l0.83452,0.27522c0.02351,-0.36855 0.02351,-0.75864 0.02351,-1.14873c0,-4.3891 -1.19418,-8.48145 -3.29106,-11.95397zm-16.0016,-10.78131l0.11284,0.89745c0.315,2.48173 0.54067,4.98979 0.76635,7.47153c0.08933,0.98839 0.18101,1.95523 0.24683,2.94362c0.04466,0.75864 0.87918,1.14873 1.48803,0.71317c0.76635,-0.57436 1.5562,-1.14873 2.36721,-1.70156c2.0287,-1.40241 4.0339,-2.80481 6.10727,-4.16175l0.76635,-0.48342c-3.22289,-2.98909 -7.32496,-5.03527 -11.85487,-5.67903zm0,0l0.11284,0.89745c0.315,2.48173 0.54067,4.98979 0.76635,7.47153c0.08933,0.98839 0.18101,1.95523 0.24683,2.94362c0.04466,0.75864 0.87918,1.14873 1.48803,0.71317c0.76635,-0.57436 1.5562,-1.14873 2.36721,-1.70156c2.0287,-1.40241 4.0339,-2.80481 6.10727,-4.16175l0.76635,-0.48342c-3.22289,-2.98909 -7.32496,-5.03527 -11.85487,-5.67903zm17.19578,30.36954c-2.45654,-0.16034 -4.89192,-0.39009 -7.34847,-0.61984c-1.06019,-0.09094 -2.09687,-0.20581 -3.15472,-0.32308c-0.67702,-0.09094 -1.21769,0.5983 -0.96851,1.2636c0.38317,1.03386 0.74284,2.07011 1.10486,3.1279c0.78985,2.34532 1.60087,4.71218 2.3437,7.10298l0.24683,0.82804c3.92106,-2.73541 6.96529,-6.68896 8.56381,-11.33413l-0.7875,-0.04547zm-1.19418,-19.58823l-0.60885,0.6677c-1.69019,1.84036 -3.42505,3.60893 -5.16226,5.37988c-1.10486,1.14873 -2.29904,2.25199 -3.44856,3.37918c1.53269,0.39009 3.06539,0.80411 4.59808,1.2636c2.36721,0.68924 4.71092,1.35694 7.05462,2.13712l0.83452,0.27522c0.02351,-0.36855 0.02351,-0.75864 0.02351,-1.14873c0,-4.3891 -1.19418,-8.48145 -3.29106,-11.95397zm0,0l-0.60885,0.6677c-1.69019,1.84036 -3.42505,3.60893 -5.16226,5.37988c-1.10486,1.14873 -2.29904,2.25199 -3.44856,3.37918c1.53269,0.39009 3.06539,0.80411 4.59808,1.2636c2.36721,0.68924 4.71092,1.35694 7.05462,2.13712l0.83452,0.27522c0.02351,-0.36855 0.02351,-0.75864 0.02351,-1.14873c0,-4.3891 -1.19418,-8.48145 -3.29106,-11.95397zm1.19418,19.58823c-2.45654,-0.16034 -4.89192,-0.39009 -7.34847,-0.61984c-1.06019,-0.09094 -2.09687,-0.20581 -3.15472,-0.32308c-0.67702,-0.09094 -1.21769,0.5983 -0.96851,1.2636c0.38317,1.03386 0.74284,2.07011 1.10486,3.1279c0.78985,2.34532 1.60087,4.71218 2.3437,7.10298l0.24683,0.82804c3.92106,-2.73541 6.96529,-6.68896 8.56381,-11.33413l-0.7875,-0.04547zm-17.19578,-30.36954l0.11284,0.89745c0.315,2.48173 0.54067,4.98979 0.76635,7.47153c0.08933,0.98839 0.18101,1.95523 0.24683,2.94362c0.04466,0.75864 0.87918,1.14873 1.48803,0.71317c0.76635,-0.57436 1.5562,-1.14873 2.36721,-1.70156c2.0287,-1.40241 4.0339,-2.80481 6.10727,-4.16175l0.76635,-0.48342c-3.22289,-2.98909 -7.32496,-5.03527 -11.85487,-5.67903zm0,0l0.11284,0.89745c0.315,2.48173 0.54067,4.98979 0.76635,7.47153c0.08933,0.98839 0.18101,1.95523 0.24683,2.94362c0.04466,0.75864 0.87918,1.14873 1.48803,0.71317c0.76635,-0.57436 1.5562,-1.14873 2.36721,-1.70156c2.0287,-1.40241 4.0339,-2.80481 6.10727,-4.16175l0.76635,-0.48342c-3.22289,-2.98909 -7.32496,-5.03527 -11.85487,-5.67903zm17.19578,30.36954c-2.45654,-0.16034 -4.89192,-0.39009 -7.34847,-0.61984c-1.06019,-0.09094 -2.09687,-0.20581 -3.15472,-0.32308c-0.67702,-0.09094 -1.21769,0.5983 -0.96851,1.2636c0.38317,1.03386 0.74284,2.07011 1.10486,3.1279c0.78985,2.34532 1.60087,4.71218 2.3437,7.10298l0.24683,0.82804c3.92106,-2.73541 6.96529,-6.68896 8.56381,-11.33413l-0.7875,-0.04547zm-1.19418,-19.58823l-0.60885,0.6677c-1.69019,1.84036 -3.42505,3.60893 -5.16226,5.37988c-1.10486,1.14873 -2.29904,2.25199 -3.44856,3.37918c1.53269,0.39009 3.06539,0.80411 4.59808,1.2636c2.36721,0.68924 4.71092,1.35694 7.05462,2.13712l0.83452,0.27522c0.02351,-0.36855 0.02351,-0.75864 0.02351,-1.14873c0,-4.3891 -1.19418,-8.48145 -3.29106,-11.95397zm0,0l-0.60885,0.6677c-1.69019,1.84036 -3.42505,3.60893 -5.16226,5.37988c-1.10486,1.14873 -2.29904,2.25199 -3.44856,3.37918c1.53269,0.39009 3.06539,0.80411 4.59808,1.2636c2.36721,0.68924 4.71092,1.35694 7.05462,2.13712l0.83452,0.27522c0.02351,-0.36855 0.02351,-0.75864 0.02351,-1.14873c0,-4.3891 -1.19418,-8.48145 -3.29106,-11.95397zm1.19418,19.58823c-2.45654,-0.16034 -4.89192,-0.39009 -7.34847,-0.61984c-1.06019,-0.09094 -2.09687,-0.20581 -3.15472,-0.32308c-0.67702,-0.09094 -1.21769,0.5983 -0.96851,1.2636c0.38317,1.03386 0.74284,2.07011 1.10486,3.1279c0.78985,2.34532 1.60087,4.71218 2.3437,7.10298l0.24683,0.82804c3.92106,-2.73541 6.96529,-6.68896 8.56381,-11.33413l-0.7875,-0.04547zm-17.19578,-30.36954l0.11284,0.89745c0.315,2.48173 0.54067,4.98979 0.76635,7.47153c0.08933,0.98839 0.18101,1.95523 0.24683,2.94362c0.04466,0.75864 0.87918,1.14873 1.48803,0.71317c0.76635,-0.57436 1.5562,-1.14873 2.36721,-1.70156c2.0287,-1.40241 4.0339,-2.80481 6.10727,-4.16175l0.76635,-0.48342c-3.22289,-2.98909 -7.32496,-5.03527 -11.85487,-5.67903zm3.04188,43.77139c-1.30702,-2.11558 -2.52471,-4.29816 -3.7424,-6.45921c-0.54067,-0.94292 -1.06019,-1.88583 -1.5562,-2.85029c-0.35967,-0.6677 -1.28586,-0.6677 -1.64553,0c-0.51952,0.98839 -1.06019,1.95523 -1.62202,2.89576c-1.23885,2.16105 -2.48005,4.3221 -3.78707,6.43767l-0.56418,0.91898c2.09687,0.6677 4.32774,1.01232 6.62678,1.01232c2.36721,0 4.66625,-0.36855 6.80779,-1.08172l-0.51717,-0.87351zm-3.04188,-43.77139l0.11284,0.89745c0.315,2.48173 0.54067,4.98979 0.76635,7.47153c0.08933,0.98839 0.18101,1.95523 0.24683,2.94362c0.04466,0.75864 0.87918,1.14873 1.48803,0.71317c0.76635,-0.57436 1.5562,-1.14873 2.36721,-1.70156c2.0287,-1.40241 4.0339,-2.80481 6.10727,-4.16175l0.76635,-0.48342c-3.22289,-2.98909 -7.32496,-5.03527 -11.85487,-5.67903zm17.19578,30.36954c-2.45654,-0.16034 -4.89192,-0.39009 -7.34847,-0.61984c-1.06019,-0.09094 -2.09687,-0.20581 -3.15472,-0.32308c-0.67702,-0.09094 -1.21769,0.5983 -0.96851,1.2636c0.38317,1.03386 0.74284,2.07011 1.10486,3.1279c0.78985,2.34532 1.60087,4.71218 2.3437,7.10298l0.24683,0.82804c3.92106,-2.73541 6.96529,-6.68896 8.56381,-11.33413l-0.7875,-0.04547zm-1.19418,-19.58823l-0.60885,0.6677c-1.69019,1.84036 -3.42505,3.60893 -5.16226,5.37988c-1.10486,1.14873 -2.29904,2.25199 -3.44856,3.37918c1.53269,0.39009 3.06539,0.80411 4.59808,1.2636c2.36721,0.68924 4.71092,1.35694 7.05462,2.13712l0.83452,0.27522c0.02351,-0.36855 0.02351,-0.75864 0.02351,-1.14873c0,-4.3891 -1.19418,-8.48145 -3.29106,-11.95397zm0,0l-0.60885,0.6677c-1.69019,1.84036 -3.42505,3.60893 -5.16226,5.37988c-1.10486,1.14873 -2.29904,2.25199 -3.44856,3.37918c1.53269,0.39009 3.06539,0.80411 4.59808,1.2636c2.36721,0.68924 4.71092,1.35694 7.05462,2.13712l0.83452,0.27522c0.02351,-0.36855 0.02351,-0.75864 0.02351,-1.14873c0,-4.3891 -1.19418,-8.48145 -3.29106,-11.95397zm1.19418,19.58823c-2.45654,-0.16034 -4.89192,-0.39009 -7.34847,-0.61984c-1.06019,-0.09094 -2.09687,-0.20581 -3.15472,-0.32308c-0.67702,-0.09094 -1.21769,0.5983 -0.96851,1.2636c0.38317,1.03386 0.74284,2.07011 1.10486,3.1279c0.78985,2.34532 1.60087,4.71218 2.3437,7.10298l0.24683,0.82804c3.92106,-2.73541 6.96529,-6.68896 8.56381,-11.33413l-0.7875,-0.04547zm-17.19578,-30.36954l0.11284,0.89745c0.315,2.48173 0.54067,4.98979 0.76635,7.47153c0.08933,0.98839 0.18101,1.95523 0.24683,2.94362c0.04466,0.75864 0.87918,1.14873 1.48803,0.71317c0.76635,-0.57436 1.5562,-1.14873 2.36721,-1.70156c2.0287,-1.40241 4.0339,-2.80481 6.10727,-4.16175l0.76635,-0.48342c-3.22289,-2.98909 -7.32496,-5.03527 -11.85487,-5.67903zm3.04188,43.77139c-1.30702,-2.11558 -2.52471,-4.29816 -3.7424,-6.45921c-0.54067,-0.94292 -1.06019,-1.88583 -1.5562,-2.85029c-0.35967,-0.6677 -1.28586,-0.6677 -1.64553,0c-0.51952,0.98839 -1.06019,1.95523 -1.62202,2.89576c-1.23885,2.16105 -2.48005,4.3221 -3.78707,6.43767l-0.56418,0.91898c2.09687,0.6677 4.32774,1.01232 6.62678,1.01232c2.36721,0 4.66625,-0.36855 6.80779,-1.08172l-0.51717,-0.87351zm-15.82294,-14.66545c-1.06019,0.1388 -2.09687,0.29915 -3.15472,0.41402c-2.45654,0.29915 -4.86842,0.5983 -7.32496,0.82804l-1.21769,0.11487c1.64553,4.69065 4.75558,8.68966 8.74481,11.40354l0.315,-0.96685c0.76635,-2.39079 1.57736,-4.73612 2.41188,-7.10298c0.38317,-1.14873 0.78985,-2.27592 1.21769,-3.42465c0.27034,-0.67009 -0.29384,-1.38087 -0.99202,-1.266zm15.82294,14.66545c-1.30702,-2.11558 -2.52471,-4.29816 -3.7424,-6.45921c-0.54067,-0.94292 -1.06019,-1.88583 -1.5562,-2.85029c-0.35967,-0.6677 -1.28586,-0.6677 -1.64553,0c-0.51952,0.98839 -1.06019,1.95523 -1.62202,2.89576c-1.23885,2.16105 -2.48005,4.3221 -3.78707,6.43767l-0.56418,0.91898c2.09687,0.6677 4.32774,1.01232 6.62678,1.01232c2.36721,0 4.66625,-0.36855 6.80779,-1.08172l-0.51717,-0.87351zm-3.04188,-43.77139l0.11284,0.89745c0.315,2.48173 0.54067,4.98979 0.76635,7.47153c0.08933,0.98839 0.18101,1.95523 0.24683,2.94362c0.04466,0.75864 0.87918,1.14873 1.48803,0.71317c0.76635,-0.57436 1.5562,-1.14873 2.36721,-1.70156c2.0287,-1.40241 4.0339,-2.80481 6.10727,-4.16175l0.76635,-0.48342c-3.22289,-2.98909 -7.32496,-5.03527 -11.85487,-5.67903zm17.19578,30.36954c-2.45654,-0.16034 -4.89192,-0.39009 -7.34847,-0.61984c-1.06019,-0.09094 -2.09687,-0.20581 -3.15472,-0.32308c-0.67702,-0.09094 -1.21769,0.5983 -0.96851,1.2636c0.38317,1.03386 0.74284,2.07011 1.10486,3.1279c0.78985,2.34532 1.60087,4.71218 2.3437,7.10298l0.24683,0.82804c3.92106,-2.73541 6.96529,-6.68896 8.56381,-11.33413l-0.7875,-0.04547zm-1.19418,-19.58823l-0.60885,0.6677c-1.69019,1.84036 -3.42505,3.60893 -5.16226,5.37988c-1.10486,1.14873 -2.29904,2.25199 -3.44856,3.37918c1.53269,0.39009 3.06539,0.80411 4.59808,1.2636c2.36721,0.68924 4.71092,1.35694 7.05462,2.13712l0.83452,0.27522c0.02351,-0.36855 0.02351,-0.75864 0.02351,-1.14873c0,-4.3891 -1.19418,-8.48145 -3.29106,-11.95397zm0,0l-0.60885,0.6677c-1.69019,1.84036 -3.42505,3.60893 -5.16226,5.37988c-1.10486,1.14873 -2.29904,2.25199 -3.44856,3.37918c1.53269,0.39009 3.06539,0.80411 4.59808,1.2636c2.36721,0.68924 4.71092,1.35694 7.05462,2.13712l0.83452,0.27522c0.02351,-0.36855 0.02351,-0.75864 0.02351,-1.14873c0,-4.3891 -1.19418,-8.48145 -3.29106,-11.95397zm1.19418,19.58823c-2.45654,-0.16034 -4.89192,-0.39009 -7.34847,-0.61984c-1.06019,-0.09094 -2.09687,-0.20581 -3.15472,-0.32308c-0.67702,-0.09094 -1.21769,0.5983 -0.96851,1.2636c0.38317,1.03386 0.74284,2.07011 1.10486,3.1279c0.78985,2.34532 1.60087,4.71218 2.3437,7.10298l0.24683,0.82804c3.92106,-2.73541 6.96529,-6.68896 8.56381,-11.33413l-0.7875,-0.04547zm-17.19578,-30.36954l0.11284,0.89745c0.315,2.48173 0.54067,4.98979 0.76635,7.47153c0.08933,0.98839 0.18101,1.95523 0.24683,2.94362c0.04466,0.75864 0.87918,1.14873 1.48803,0.71317c0.76635,-0.57436 1.5562,-1.14873 2.36721,-1.70156c2.0287,-1.40241 4.0339,-2.80481 6.10727,-4.16175l0.76635,-0.48342c-3.22289,-2.98909 -7.32496,-5.03527 -11.85487,-5.67903zm3.04188,43.77139c-1.30702,-2.11558 -2.52471,-4.29816 -3.7424,-6.45921c-0.54067,-0.94292 -1.06019,-1.88583 -1.5562,-2.85029c-0.35967,-0.6677 -1.28586,-0.6677 -1.64553,0c-0.51952,0.98839 -1.06019,1.95523 -1.62202,2.89576c-1.23885,2.16105 -2.48005,4.3221 -3.78707,6.43767l-0.56418,0.91898c2.09687,0.6677 4.32774,1.01232 6.62678,1.01232c2.36721,0 4.66625,-0.36855 6.80779,-1.08172l-0.51717,-0.87351zm-15.82294,-14.66545c-1.06019,0.1388 -2.09687,0.29915 -3.15472,0.41402c-2.45654,0.29915 -4.86842,0.5983 -7.32496,0.82804l-1.21769,0.11487c1.64553,4.69065 4.75558,8.68966 8.74481,11.40354l0.315,-0.96685c0.76635,-2.39079 1.57736,-4.73612 2.41188,-7.10298c0.38317,-1.14873 0.78985,-2.27592 1.21769,-3.42465c0.27034,-0.67009 -0.29384,-1.38087 -0.99202,-1.266zm0,0c-1.06019,0.1388 -2.09687,0.29915 -3.15472,0.41402c-2.45654,0.29915 -4.86842,0.5983 -7.32496,0.82804l-1.21769,0.11487c1.64553,4.69065 4.75558,8.68966 8.74481,11.40354l0.315,-0.96685c0.76635,-2.39079 1.57736,-4.73612 2.41188,-7.10298c0.38317,-1.14873 0.78985,-2.27592 1.21769,-3.42465c0.27034,-0.67009 -0.29384,-1.38087 -0.99202,-1.266zm15.82294,14.66545c-1.30702,-2.11558 -2.52471,-4.29816 -3.7424,-6.45921c-0.54067,-0.94292 -1.06019,-1.88583 -1.5562,-2.85029c-0.35967,-0.6677 -1.28586,-0.6677 -1.64553,0c-0.51952,0.98839 -1.06019,1.95523 -1.62202,2.89576c-1.23885,2.16105 -2.48005,4.3221 -3.78707,6.43767l-0.56418,0.91898c2.09687,0.6677 4.32774,1.01232 6.62678,1.01232c2.36721,0 4.66625,-0.36855 6.80779,-1.08172l-0.51717,-0.87351zm-3.04188,-43.77139l0.11284,0.89745c0.315,2.48173 0.54067,4.98979 0.76635,7.47153c0.08933,0.98839 0.18101,1.95523 0.24683,2.94362c0.04466,0.75864 0.87918,1.14873 1.48803,0.71317c0.76635,-0.57436 1.5562,-1.14873 2.36721,-1.70156c2.0287,-1.40241 4.0339,-2.80481 6.10727,-4.16175l0.76635,-0.48342c-3.22289,-2.98909 -7.32496,-5.03527 -11.85487,-5.67903zm17.19578,30.36954c-2.45654,-0.16034 -4.89192,-0.39009 -7.34847,-0.61984c-1.06019,-0.09094 -2.09687,-0.20581 -3.15472,-0.32308c-0.67702,-0.09094 -1.21769,0.5983 -0.96851,1.2636c0.38317,1.03386 0.74284,2.07011 1.10486,3.1279c0.78985,2.34532 1.60087,4.71218 2.3437,7.10298l0.24683,0.82804c3.92106,-2.73541 6.96529,-6.68896 8.56381,-11.33413l-0.7875,-0.04547zm-1.19418,-19.58823l-0.60885,0.6677c-1.69019,1.84036 -3.42505,3.60893 -5.16226,5.37988c-1.10486,1.14873 -2.29904,2.25199 -3.44856,3.37918c1.53269,0.39009 3.06539,0.80411 4.59808,1.2636c2.36721,0.68924 4.71092,1.35694 7.05462,2.13712l0.83452,0.27522c0.02351,-0.36855 0.02351,-0.75864 0.02351,-1.14873c0,-4.3891 -1.19418,-8.48145 -3.29106,-11.95397zm0,0l-0.60885,0.6677c-1.69019,1.84036 -3.42505,3.60893 -5.16226,5.37988c-1.10486,1.14873 -2.29904,2.25199 -3.44856,3.37918c1.53269,0.39009 3.06539,0.80411 4.59808,1.2636c2.36721,0.68924 4.71092,1.35694 7.05462,2.13712l0.83452,0.27522c0.02351,-0.36855 0.02351,-0.75864 0.02351,-1.14873c0,-4.3891 -1.19418,-8.48145 -3.29106,-11.95397zm1.19418,19.58823c-2.45654,-0.16034 -4.89192,-0.39009 -7.34847,-0.61984c-1.06019,-0.09094 -2.09687,-0.20581 -3.15472,-0.32308c-0.67702,-0.09094 -1.21769,0.5983 -0.96851,1.2636c0.38317,1.03386 0.74284,2.07011 1.10486,3.1279c0.78985,2.34532 1.60087,4.71218 2.3437,7.10298l0.24683,0.82804c3.92106,-2.73541 6.96529,-6.68896 8.56381,-11.33413l-0.7875,-0.04547zm-17.19578,-30.36954l0.11284,0.89745c0.315,2.48173 0.54067,4.98979 0.76635,7.47153c0.08933,0.98839 0.18101,1.95523 0.24683,2.94362c0.04466,0.75864 0.87918,1.14873 1.48803,0.71317c0.76635,-0.57436 1.5562,-1.14873 2.36721,-1.70156c2.0287,-1.40241 4.0339,-2.80481 6.10727,-4.16175l0.76635,-0.48342c-3.22289,-2.98909 -7.32496,-5.03527 -11.85487,-5.67903zm3.04188,43.77139c-1.30702,-2.11558 -2.52471,-4.29816 -3.7424,-6.45921c-0.54067,-0.94292 -1.06019,-1.88583 -1.5562,-2.85029c-0.35967,-0.6677 -1.28586,-0.6677 -1.64553,0c-0.51952,0.98839 -1.06019,1.95523 -1.62202,2.89576c-1.23885,2.16105 -2.48005,4.3221 -3.78707,6.43767l-0.56418,0.91898c2.09687,0.6677 4.32774,1.01232 6.62678,1.01232c2.36721,0 4.66625,-0.36855 6.80779,-1.08172l-0.51717,-0.87351zm-15.82294,-14.66545c-1.06019,0.1388 -2.09687,0.29915 -3.15472,0.41402c-2.45654,0.29915 -4.86842,0.5983 -7.32496,0.82804l-1.21769,0.11487c1.64553,4.69065 4.75558,8.68966 8.74481,11.40354l0.315,-0.96685c0.76635,-2.39079 1.57736,-4.73612 2.41188,-7.10298c0.38317,-1.14873 0.78985,-2.27592 1.21769,-3.42465c0.27034,-0.67009 -0.29384,-1.38087 -0.99202,-1.266zm-1.26236,-10.48455c-0.76635,-0.71317 -1.50919,-1.42634 -2.25438,-2.18498c-1.75837,-1.77096 -3.49322,-3.51798 -5.20693,-5.33441l-0.72168,-0.75864c-2.25438,3.56346 -3.5614,7.81615 -3.5614,12.39192c0,0.43795 0.02351,0.84958 0.02351,1.2636l1.06019,-0.36855c2.32255,-0.84958 4.66625,-1.58668 6.98645,-2.36686c1.10486,-0.36855 2.20971,-0.68924 3.31222,-1.03386c0.70053,-0.20581 0.90269,-1.10326 0.36202,-1.60822zm1.26236,10.48455c-1.06019,0.1388 -2.09687,0.29915 -3.15472,0.41402c-2.45654,0.29915 -4.86842,0.5983 -7.32496,0.82804l-1.21769,0.11487c1.64553,4.69065 4.75558,8.68966 8.74481,11.40354l0.315,-0.96685c0.76635,-2.39079 1.57736,-4.73612 2.41188,-7.10298c0.38317,-1.14873 0.78985,-2.27592 1.21769,-3.42465c0.27034,-0.67009 -0.29384,-1.38087 -0.99202,-1.266zm15.82294,14.66545c-1.30702,-2.11558 -2.52471,-4.29816 -3.7424,-6.45921c-0.54067,-0.94292 -1.06019,-1.88583 -1.5562,-2.85029c-0.35967,-0.6677 -1.28586,-0.6677 -1.64553,0c-0.51952,0.98839 -1.06019,1.95523 -1.62202,2.89576c-1.23885,2.16105 -2.48005,4.3221 -3.78707,6.43767l-0.56418,0.91898c2.09687,0.6677 4.32774,1.01232 6.62678,1.01232c2.36721,0 4.66625,-0.36855 6.80779,-1.08172l-0.51717,-0.87351zm-3.04188,-43.77139l0.11284,0.89745c0.315,2.48173 0.54067,4.98979 0.76635,7.47153c0.08933,0.98839 0.18101,1.95523 0.24683,2.94362c0.04466,0.75864 0.87918,1.14873 1.48803,0.71317c0.76635,-0.57436 1.5562,-1.14873 2.36721,-1.70156c2.0287,-1.40241 4.0339,-2.80481 6.10727,-4.16175l0.76635,-0.48342c-3.22289,-2.98909 -7.32496,-5.03527 -11.85487,-5.67903zm17.19578,30.36954c-2.45654,-0.16034 -4.89192,-0.39009 -7.34847,-0.61984c-1.06019,-0.09094 -2.09687,-0.20581 -3.15472,-0.32308c-0.67702,-0.09094 -1.21769,0.5983 -0.96851,1.2636c0.38317,1.03386 0.74284,2.07011 1.10486,3.1279c0.78985,2.34532 1.60087,4.71218 2.3437,7.10298l0.24683,0.82804c3.92106,-2.73541 6.96529,-6.68896 8.56381,-11.33413l-0.7875,-0.04547zm-1.19418,-19.58823l-0.60885,0.6677c-1.69019,1.84036 -3.42505,3.60893 -5.16226,5.37988c-1.10486,1.14873 -2.29904,2.25199 -3.44856,3.37918c1.53269,0.39009 3.06539,0.80411 4.59808,1.2636c2.36721,0.68924 4.71092,1.35694 7.05462,2.13712l0.83452,0.27522c0.02351,-0.36855 0.02351,-0.75864 0.02351,-1.14873c0,-4.3891 -1.19418,-8.48145 -3.29106,-11.95397zm0,0l-0.60885,0.6677c-1.69019,1.84036 -3.42505,3.60893 -5.16226,5.37988c-1.10486,1.14873 -2.29904,2.25199 -3.44856,3.37918c1.53269,0.39009 3.06539,0.80411 4.59808,1.2636c2.36721,0.68924 4.71092,1.35694 7.05462,2.13712l0.83452,0.27522c0.02351,-0.36855 0.02351,-0.75864 0.02351,-1.14873c0,-4.3891 -1.19418,-8.48145 -3.29106,-11.95397zm-6.15428,18.9684c-1.06019,-0.09094 -2.09687,-0.20581 -3.15472,-0.32308c-0.67702,-0.09094 -1.21769,0.5983 -0.96851,1.2636c0.38317,1.03386 0.74284,2.07011 1.10486,3.1279c0.78985,2.34532 1.60087,4.71218 2.3437,7.10298l0.24683,0.82804c3.92106,-2.73541 6.96529,-6.68896 8.56381,-11.33413l-0.78985,-0.04547c-2.45419,-0.16034 -4.88722,-0.39009 -7.34611,-0.61984zm2.00755,-24.07067c-3.22289,-2.98909 -7.32496,-5.03527 -11.85487,-5.67903l0.11284,0.89745c0.315,2.48173 0.54067,4.98979 0.76635,7.47153c0.08933,0.98839 0.18101,1.95523 0.24683,2.94362c0.04466,0.75864 0.87918,1.14873 1.48803,0.71317c0.76635,-0.57436 1.5562,-1.14873 2.36721,-1.70156c2.0287,-1.40241 4.0339,-2.80481 6.10727,-4.16175l0.76635,-0.48342zm-12.55539,31.63314c-0.54067,-0.94292 -1.06019,-1.88583 -1.5562,-2.85029c-0.35967,-0.6677 -1.28586,-0.6677 -1.64553,0c-0.51952,0.98839 -1.06019,1.95523 -1.62202,2.89576c-1.23885,2.16105 -2.48005,4.3221 -3.78707,6.43767l-0.56418,0.91898c2.09687,0.6677 4.32774,1.01232 6.62678,1.01232c2.36721,0 4.66625,-0.36855 6.80779,-1.08172l-0.51952,-0.87351c-1.30467,-2.11318 -2.52236,-4.29816 -3.74005,-6.45921zm-12.08054,-8.20624c-1.06019,0.1388 -2.09687,0.29915 -3.15472,0.41402c-2.45654,0.29915 -4.86842,0.5983 -7.32496,0.82804l-1.21769,0.11487c1.64553,4.69065 4.75558,8.68966 8.74481,11.40354l0.315,-0.96685c0.76635,-2.39079 1.57736,-4.73612 2.41188,-7.10298c0.38317,-1.14873 0.78985,-2.27592 1.21769,-3.42465c0.27034,-0.67009 -0.29384,-1.38087 -0.99202,-1.266zm-1.62202,-8.87633c0.69817,-0.20581 0.90269,-1.10326 0.35967,-1.60822c-0.76635,-0.71317 -1.50919,-1.42634 -2.25438,-2.18498c-1.75837,-1.77096 -3.49322,-3.51798 -5.20693,-5.33441l-0.72168,-0.75864c-2.25438,3.56346 -3.5614,7.81615 -3.5614,12.39192c0,0.43795 0.02351,0.84958 0.02351,1.2636l1.06019,-0.36855c2.32255,-0.84958 4.66625,-1.58668 6.98645,-2.36686c1.10486,-0.36616 2.20971,-0.68684 3.31457,-1.03386zm60.13471,10.50848l-8.61082,-38.57817c-0.38317,-1.72309 -1.50919,-3.14943 -3.06539,-3.93201l-34.84527,-17.14958c-1.5562,-0.78257 -3.35923,-0.78257 -4.91308,0l-34.84527,17.14958c-1.5562,0.78257 -2.68221,2.20652 -3.06539,3.93201l-8.61082,38.57817c-0.38317,1.72309 0.02351,3.51798 1.08135,4.87492l24.11641,30.94391c1.08135,1.37848 2.72688,2.18498 4.44058,2.18498l38.677,0c1.7137,0 3.35923,-0.80411 4.44058,-2.18498l24.11641,-30.94391c1.06019,-1.35933 1.46687,-3.15183 1.0837,-4.87492zm-12.03587,1.60822c-0.67702,0.16034 -1.35169,0 -1.89236,-0.34462c-1.10486,-0.75864 -2.27553,-1.17266 -3.44856,-1.51728c-0.58534,-0.16034 -1.19418,-0.29915 -1.77952,-0.39009c-0.58534,-0.18428 -1.26236,0 -1.93937,0.32069c-0.67702,0.39009 -1.28586,0.32308 -1.91587,0.27522l-0.06817,0c-1.93937,6.55255 -6.19895,12.09277 -11.83371,15.61076l0,0.02393c0.18101,0.5983 0.38317,1.17266 0.20217,1.95523c-0.1575,0.75864 -0.18101,1.44788 0.13634,2.0007c0.24683,0.55283 0.51952,1.12719 0.81101,1.65609c0.60885,1.07933 1.28586,2.16105 2.27553,3.05849c0.99202,0.94292 1.06019,2.50567 0.1575,3.53952c-0.92385,1.01232 -2.45654,1.07933 -3.47207,0.16034c-0.51952,-0.48342 -0.78985,-1.12719 -0.78985,-1.7925c-0.04466,-1.35694 -0.38317,-2.55114 -0.78985,-3.74773c-0.20217,-0.57436 -0.42784,-1.14873 -0.69817,-1.72309c-0.20217,-0.5983 -0.74284,-1.01232 -1.3987,-1.40241c-0.63,-0.34462 -0.94735,-0.82804 -1.26236,-1.35694c-2.88438,1.08172 -5.99443,1.65609 -9.24082,1.65609c-3.19938,0 -6.26477,-0.57436 -9.10683,-1.60822c-0.27034,0.50496 -0.58534,0.96445 -1.21769,1.31147c-0.65351,0.36855 -1.19418,0.80411 -1.39635,1.40241c-0.27034,0.55283 -0.51952,1.12719 -0.72168,1.70156c-0.40668,1.19659 -0.76635,2.39079 -0.78985,3.74773c-0.04466,1.37848 -1.19418,2.4602 -2.54587,2.41473c-1.35169,-0.04547 -2.41188,-1.1942 -2.36721,-2.57507c0.02351,-0.71317 0.33851,-1.33301 0.81101,-1.77096c0.99202,-0.91898 1.66904,-1.97677 2.29904,-3.03456c0.29384,-0.55283 0.56418,-1.10326 0.81101,-1.67762c0.315,-0.52889 0.29384,-1.24206 0.1575,-2.0007c-0.1575,-0.71317 0,-1.28753 0.18101,-1.81643c-5.65827,-3.47251 -9.98601,-8.98881 -11.9677,-15.54136c-0.51952,0.04547 -1.01318,0.04547 -1.60087,-0.25368c-0.69817,-0.29915 -1.35169,-0.48342 -1.93937,-0.27522c-0.60885,0.11487 -1.19418,0.27522 -1.77952,0.45949c-1.17303,0.39009 -2.32255,0.82804 -3.4039,1.60822c-1.10486,0.80411 -2.63755,0.52889 -3.42505,-0.5983c-0.76635,-1.12719 -0.51952,-2.68994 0.58534,-3.47251c0.56418,-0.41402 1.26236,-0.55283 1.89236,-0.43795c1.28586,0.27522 2.52471,0.18428 3.7424,0.02393c0.60885,-0.0694 1.21769,-0.18428 1.80303,-0.34462c0.60885,-0.04547 1.14952,-0.50496 1.64553,-1.07933c0.42784,-0.50496 0.92385,-0.71317 1.41986,-0.89745c-0.08933,-0.94292 -0.13634,-1.90737 -0.13634,-2.87422c0,-5.88485 1.80303,-11.33413 4.89192,-15.81657c-0.40668,-0.41402 -0.78985,-0.82804 -0.94735,-1.56275c-0.20217,-0.73471 -0.4725,-1.37848 -0.99202,-1.72309c-0.4725,-0.41402 -0.94735,-0.78257 -1.44336,-1.12719c-1.03668,-0.68924 -2.09687,-1.33301 -3.35923,-1.72309c-1.30702,-0.36855 -2.07337,-1.77096 -1.69019,-3.08003c0.38317,-1.33301 1.73486,-2.09165 3.04188,-1.72309c0.65351,0.20581 1.19418,0.6677 1.48803,1.24206c0.60885,1.19659 1.44336,2.13712 2.32255,3.01063c0.42784,0.43795 0.90269,0.84958 1.37519,1.21813c0.42784,0.45949 1.10486,0.5983 1.84769,0.64377c0.78985,0.02393 1.28351,0.36855 1.80303,0.71317l0.02351,0.02393c4.23841,-4.18329 9.82616,-6.94263 16.02511,-7.54093c0.06817,-0.61984 0.11284,-1.24206 0.58534,-1.8619c0.45135,-0.61984 0.76635,-1.24206 0.69817,-1.8619c0.02351,-0.61984 0,-1.24206 -0.04466,-1.88583c-0.13634,-1.24206 -0.315,-2.48413 -0.83452,-3.7238c-0.54067,-1.2636 0.04466,-2.73541 1.28586,-3.28824c1.23885,-0.52889 2.68221,0.04547 3.22289,1.31147c0.27034,0.6677 0.24683,1.37848 0,1.97677c-0.51952,1.24206 -0.69817,2.48173 -0.83452,3.7238c-0.04466,0.64377 -0.06817,1.2636 -0.04466,1.88583c-0.06817,0.61984 0.24683,1.24206 0.69817,1.8619c0.4725,0.61984 0.51952,1.24206 0.58534,1.8619c6.35645,0.61984 12.08054,3.49405 16.36362,7.86162c0.51952,-0.34462 1.01318,-0.71317 1.80303,-0.73471c0.74284,-0.04547 1.41986,-0.18428 1.84769,-0.64377c0.4725,-0.39009 0.92385,-0.80411 1.37519,-1.24206c0.85568,-0.87351 1.69019,-1.81643 2.29904,-3.01063c0.60885,-1.24206 2.09687,-1.72309 3.29106,-1.07933c1.21769,0.61984 1.69019,2.13712 1.06019,3.35764c-0.315,0.64377 -0.85568,1.08172 -1.48803,1.2636c-1.26236,0.36855 -2.32255,1.03386 -3.33572,1.72309c-0.49601,0.36855 -0.99202,0.73471 -1.44336,1.14873c-0.51952,0.34462 -0.78985,0.98839 -0.99202,1.72309c-0.1575,0.78257 -0.58534,1.21813 -1.01318,1.67762c2.92904,4.3915 4.62159,9.70198 4.62159,15.40255c0,0.87351 -0.04466,1.74703 -0.11284,2.599l0.02351,0c0.58534,0.18428 1.17303,0.34462 1.69019,0.96445c0.51952,0.55283 1.06019,0.96445 1.66904,1.01232c0.60885,0.1388 1.19418,0.22975 1.80303,0.29915c1.23885,0.11487 2.45654,0.16034 3.76356,-0.1388c1.33053,-0.29915 2.63755,0.55283 2.92904,1.90737c0.3009,1.32822 -0.53362,2.66122 -1.8618,2.96037zm-18.30299,-20.89731c-1.69019,1.84036 -3.42505,3.60893 -5.16226,5.37988c-1.10486,1.14873 -2.29904,2.25199 -3.44856,3.37918c1.53269,0.39009 3.06539,0.80411 4.59808,1.2636c2.36721,0.68924 4.71092,1.35694 7.05462,2.13712l0.83452,0.27522c0.02351,-0.36855 0.02351,-0.75864 0.02351,-1.14873c0,-4.3915 -1.19418,-8.48385 -3.29106,-11.95397l-0.60885,0.6677zm-5.54543,18.3007c-1.06019,-0.09094 -2.09687,-0.20581 -3.15472,-0.32308c-0.67702,-0.09094 -1.21769,0.5983 -0.96851,1.2636c0.38317,1.03386 0.74284,2.07011 1.10486,3.1279c0.78985,2.34532 1.60087,4.71218 2.3437,7.10298l0.24683,0.82804c3.92106,-2.73541 6.96529,-6.68896 8.56381,-11.33413l-0.78985,-0.04547c-2.45419,-0.16034 -4.88722,-0.39009 -7.34611,-0.61984zm2.00755,-24.07067c-3.22289,-2.98909 -7.32496,-5.03527 -11.85487,-5.67903l0.11284,0.89745c0.315,2.48173 0.54067,4.98979 0.76635,7.47153c0.08933,0.98839 0.18101,1.95523 0.24683,2.94362c0.04466,0.75864 0.87918,1.14873 1.48803,0.71317c0.76635,-0.57436 1.5562,-1.14873 2.36721,-1.70156c2.0287,-1.40241 4.0339,-2.80481 6.10727,-4.16175l0.76635,-0.48342zm-12.55539,31.63314c-0.54067,-0.94292 -1.06019,-1.88583 -1.5562,-2.85029c-0.35967,-0.6677 -1.28586,-0.6677 -1.64553,0c-0.51952,0.98839 -1.06019,1.95523 -1.62202,2.89576c-1.23885,2.16105 -2.48005,4.3221 -3.78707,6.43767l-0.56418,0.91898c2.09687,0.6677 4.32774,1.01232 6.62678,1.01232c2.36721,0 4.66625,-0.36855 6.80779,-1.08172l-0.51952,-0.87351c-1.30467,-2.11318 -2.52236,-4.29816 -3.74005,-6.45921zm-6.67145,-28.9432c0.22567,-2.48413 0.45135,-4.98979 0.76635,-7.47153l0.11284,-0.89745c-4.3489,0.61984 -8.29347,2.5296 -11.45054,5.33441l0.69817,0.43795c2.09687,1.33301 4.12558,2.73541 6.15428,4.13782c1.17303,0.75864 2.27553,1.60822 3.38039,2.41473c0.09168,-1.31386 0.20452,-2.64686 0.33851,-3.95594zm-5.40909,20.73696c-1.06019,0.1388 -2.09687,0.29915 -3.15472,0.41402c-2.45654,0.29915 -4.86842,0.5983 -7.32496,0.82804l-1.21769,0.11487c1.64553,4.69065 4.75558,8.68966 8.74481,11.40354l0.315,-0.96685c0.76635,-2.39079 1.57736,-4.73612 2.41188,-7.10298c0.38317,-1.14873 0.78985,-2.27592 1.21769,-3.42465c0.27034,-0.67009 -0.29384,-1.38087 -0.99202,-1.266zm-1.62202,-8.87633c0.69817,-0.20581 0.90269,-1.10326 0.35967,-1.60822c-0.76635,-0.71317 -1.50919,-1.42634 -2.25438,-2.18498c-1.75837,-1.77096 -3.49322,-3.51798 -5.20693,-5.33441l-0.72168,-0.75864c-2.25438,3.56346 -3.5614,7.81615 -3.5614,12.39192c0,0.43795 0.02351,0.84958 0.02351,1.2636l1.06019,-0.36855c2.32255,-0.84958 4.66625,-1.58668 6.98645,-2.36686c1.10486,-0.36616 2.20971,-0.68684 3.31457,-1.03386zm0.35967,-1.60822c-0.76635,-0.71317 -1.50919,-1.42634 -2.25438,-2.18498c-1.75837,-1.77096 -3.49322,-3.51798 -5.20693,-5.33441l-0.72168,-0.75864c-2.25438,3.56346 -3.5614,7.81615 -3.5614,12.39192c0,0.43795 0.02351,0.84958 0.02351,1.2636l1.06019,-0.36855c2.32255,-0.84958 4.66625,-1.58668 6.98645,-2.36686c1.10486,-0.36855 2.20971,-0.68924 3.31222,-1.03386c0.70053,-0.20581 0.90269,-1.10326 0.36202,-1.60822zm1.26236,10.48455c-1.06019,0.1388 -2.09687,0.29915 -3.15472,0.41402c-2.45654,0.29915 -4.86842,0.5983 -7.32496,0.82804l-1.21769,0.11487c1.64553,4.69065 4.75558,8.68966 8.74481,11.40354l0.315,-0.96685c0.76635,-2.39079 1.57736,-4.73612 2.41188,-7.10298c0.38317,-1.14873 0.78985,-2.27592 1.21769,-3.42465c0.27034,-0.67009 -0.29384,-1.38087 -0.99202,-1.266zm15.82294,14.66545c-1.30702,-2.11558 -2.52471,-4.29816 -3.7424,-6.45921c-0.54067,-0.94292 -1.06019,-1.88583 -1.5562,-2.85029c-0.35967,-0.6677 -1.28586,-0.6677 -1.64553,0c-0.51952,0.98839 -1.06019,1.95523 -1.62202,2.89576c-1.23885,2.16105 -2.48005,4.3221 -3.78707,6.43767l-0.56418,0.91898c2.09687,0.6677 4.32774,1.01232 6.62678,1.01232c2.36721,0 4.66625,-0.36855 6.80779,-1.08172l-0.51717,-0.87351zm-3.04188,-43.77139l0.11284,0.89745c0.315,2.48173 0.54067,4.98979 0.76635,7.47153c0.08933,0.98839 0.18101,1.95523 0.24683,2.94362c0.04466,0.75864 0.87918,1.14873 1.48803,0.71317c0.76635,-0.57436 1.5562,-1.14873 2.36721,-1.70156c2.0287,-1.40241 4.0339,-2.80481 6.10727,-4.16175l0.76635,-0.48342c-3.22289,-2.98909 -7.32496,-5.03527 -11.85487,-5.67903zm17.19578,30.36954c-2.45654,-0.16034 -4.89192,-0.39009 -7.34847,-0.61984c-1.06019,-0.09094 -2.09687,-0.20581 -3.15472,-0.32308c-0.67702,-0.09094 -1.21769,0.5983 -0.96851,1.2636c0.38317,1.03386 0.74284,2.07011 1.10486,3.1279c0.78985,2.34532 1.60087,4.71218 2.3437,7.10298l0.24683,0.82804c3.92106,-2.73541 6.96529,-6.68896 8.56381,-11.33413l-0.7875,-0.04547zm-1.19418,-19.58823l-0.60885,0.6677c-1.69019,1.84036 -3.42505,3.60893 -5.16226,5.37988c-1.10486,1.14873 -2.29904,2.25199 -3.44856,3.37918c1.53269,0.39009 3.06539,0.80411 4.59808,1.2636c2.36721,0.68924 4.71092,1.35694 7.05462,2.13712l0.83452,0.27522c0.02351,-0.36855 0.02351,-0.75864 0.02351,-1.14873c0,-4.3891 -1.19418,-8.48145 -3.29106,-11.95397zm0,0l-0.60885,0.6677c-1.69019,1.84036 -3.42505,3.60893 -5.16226,5.37988c-1.10486,1.14873 -2.29904,2.25199 -3.44856,3.37918c1.53269,0.39009 3.06539,0.80411 4.59808,1.2636c2.36721,0.68924 4.71092,1.35694 7.05462,2.13712l0.83452,0.27522c0.02351,-0.36855 0.02351,-0.75864 0.02351,-1.14873c0,-4.3891 -1.19418,-8.48145 -3.29106,-11.95397zm1.19418,19.58823c-2.45654,-0.16034 -4.89192,-0.39009 -7.34847,-0.61984c-1.06019,-0.09094 -2.09687,-0.20581 -3.15472,-0.32308c-0.67702,-0.09094 -1.21769,0.5983 -0.96851,1.2636c0.38317,1.03386 0.74284,2.07011 1.10486,3.1279c0.78985,2.34532 1.60087,4.71218 2.3437,7.10298l0.24683,0.82804c3.92106,-2.73541 6.96529,-6.68896 8.56381,-11.33413l-0.7875,-0.04547zm-17.19578,-30.36954l0.11284,0.89745c0.315,2.48173 0.54067,4.98979 0.76635,7.47153c0.08933,0.98839 0.18101,1.95523 0.24683,2.94362c0.04466,0.75864 0.87918,1.14873 1.48803,0.71317c0.76635,-0.57436 1.5562,-1.14873 2.36721,-1.70156c2.0287,-1.40241 4.0339,-2.80481 6.10727,-4.16175l0.76635,-0.48342c-3.22289,-2.98909 -7.32496,-5.03527 -11.85487,-5.67903zm3.04188,43.77139c-1.30702,-2.11558 -2.52471,-4.29816 -3.7424,-6.45921c-0.54067,-0.94292 -1.06019,-1.88583 -1.5562,-2.85029c-0.35967,-0.6677 -1.28586,-0.6677 -1.64553,0c-0.51952,0.98839 -1.06019,1.95523 -1.62202,2.89576c-1.23885,2.16105 -2.48005,4.3221 -3.78707,6.43767l-0.56418,0.91898c2.09687,0.6677 4.32774,1.01232 6.62678,1.01232c2.36721,0 4.66625,-0.36855 6.80779,-1.08172l-0.51717,-0.87351zm-15.82294,-14.66545c-1.06019,0.1388 -2.09687,0.29915 -3.15472,0.41402c-2.45654,0.29915 -4.86842,0.5983 -7.32496,0.82804l-1.21769,0.11487c1.64553,4.69065 4.75558,8.68966 8.74481,11.40354l0.315,-0.96685c0.76635,-2.39079 1.57736,-4.73612 2.41188,-7.10298c0.38317,-1.14873 0.78985,-2.27592 1.21769,-3.42465c0.27034,-0.67009 -0.29384,-1.38087 -0.99202,-1.266zm-1.26236,-10.48455c-0.76635,-0.71317 -1.50919,-1.42634 -2.25438,-2.18498c-1.75837,-1.77096 -3.49322,-3.51798 -5.20693,-5.33441l-0.72168,-0.75864c-2.25438,3.56346 -3.5614,7.81615 -3.5614,12.39192c0,0.43795 0.02351,0.84958 0.02351,1.2636l1.06019,-0.36855c2.32255,-0.84958 4.66625,-1.58668 6.98645,-2.36686c1.10486,-0.36855 2.20971,-0.68924 3.31222,-1.03386c0.70053,-0.20581 0.90269,-1.10326 0.36202,-1.60822zm1.26236,10.48455c-1.06019,0.1388 -2.09687,0.29915 -3.15472,0.41402c-2.45654,0.29915 -4.86842,0.5983 -7.32496,0.82804l-1.21769,0.11487c1.64553,4.69065 4.75558,8.68966 8.74481,11.40354l0.315,-0.96685c0.76635,-2.39079 1.57736,-4.73612 2.41188,-7.10298c0.38317,-1.14873 0.78985,-2.27592 1.21769,-3.42465c0.27034,-0.67009 -0.29384,-1.38087 -0.99202,-1.266zm15.82294,14.66545c-1.30702,-2.11558 -2.52471,-4.29816 -3.7424,-6.45921c-0.54067,-0.94292 -1.06019,-1.88583 -1.5562,-2.85029c-0.35967,-0.6677 -1.28586,-0.6677 -1.64553,0c-0.51952,0.98839 -1.06019,1.95523 -1.62202,2.89576c-1.23885,2.16105 -2.48005,4.3221 -3.78707,6.43767l-0.56418,0.91898c2.09687,0.6677 4.32774,1.01232 6.62678,1.01232c2.36721,0 4.66625,-0.36855 6.80779,-1.08172l-0.51717,-0.87351zm-3.04188,-43.77139l0.11284,0.89745c0.315,2.48173 0.54067,4.98979 0.76635,7.47153c0.08933,0.98839 0.18101,1.95523 0.24683,2.94362c0.04466,0.75864 0.87918,1.14873 1.48803,0.71317c0.76635,-0.57436 1.5562,-1.14873 2.36721,-1.70156c2.0287,-1.40241 4.0339,-2.80481 6.10727,-4.16175l0.76635,-0.48342c-3.22289,-2.98909 -7.32496,-5.03527 -11.85487,-5.67903zm17.19578,30.36954c-2.45654,-0.16034 -4.89192,-0.39009 -7.34847,-0.61984c-1.06019,-0.09094 -2.09687,-0.20581 -3.15472,-0.32308c-0.67702,-0.09094 -1.21769,0.5983 -0.96851,1.2636c0.38317,1.03386 0.74284,2.07011 1.10486,3.1279c0.78985,2.34532 1.60087,4.71218 2.3437,7.10298l0.24683,0.82804c3.92106,-2.73541 6.96529,-6.68896 8.56381,-11.33413l-0.7875,-0.04547zm-1.19418,-19.58823l-0.60885,0.6677c-1.69019,1.84036 -3.42505,3.60893 -5.16226,5.37988c-1.10486,1.14873 -2.29904,2.25199 -3.44856,3.37918c1.53269,0.39009 3.06539,0.80411 4.59808,1.2636c2.36721,0.68924 4.71092,1.35694 7.05462,2.13712l0.83452,0.27522c0.02351,-0.36855 0.02351,-0.75864 0.02351,-1.14873c0,-4.3891 -1.19418,-8.48145 -3.29106,-11.95397zm0,0l-0.60885,0.6677c-1.69019,1.84036 -3.42505,3.60893 -5.16226,5.37988c-1.10486,1.14873 -2.29904,2.25199 -3.44856,3.37918c1.53269,0.39009 3.06539,0.80411 4.59808,1.2636c2.36721,0.68924 4.71092,1.35694 7.05462,2.13712l0.83452,0.27522c0.02351,-0.36855 0.02351,-0.75864 0.02351,-1.14873c0,-4.3891 -1.19418,-8.48145 -3.29106,-11.95397zm1.19418,19.58823c-2.45654,-0.16034 -4.89192,-0.39009 -7.34847,-0.61984c-1.06019,-0.09094 -2.09687,-0.20581 -3.15472,-0.32308c-0.67702,-0.09094 -1.21769,0.5983 -0.96851,1.2636c0.38317,1.03386 0.74284,2.07011 1.10486,3.1279c0.78985,2.34532 1.60087,4.71218 2.3437,7.10298l0.24683,0.82804c3.92106,-2.73541 6.96529,-6.68896 8.56381,-11.33413l-0.7875,-0.04547zm-17.19578,-30.36954l0.11284,0.89745c0.315,2.48173 0.54067,4.98979 0.76635,7.47153c0.08933,0.98839 0.18101,1.95523 0.24683,2.94362c0.04466,0.75864 0.87918,1.14873 1.48803,0.71317c0.76635,-0.57436 1.5562,-1.14873 2.36721,-1.70156c2.0287,-1.40241 4.0339,-2.80481 6.10727,-4.16175l0.76635,-0.48342c-3.22289,-2.98909 -7.32496,-5.03527 -11.85487,-5.67903zm3.04188,43.77139c-1.30702,-2.11558 -2.52471,-4.29816 -3.7424,-6.45921c-0.54067,-0.94292 -1.06019,-1.88583 -1.5562,-2.85029c-0.35967,-0.6677 -1.28586,-0.6677 -1.64553,0c-0.51952,0.98839 -1.06019,1.95523 -1.62202,2.89576c-1.23885,2.16105 -2.48005,4.3221 -3.78707,6.43767l-0.56418,0.91898c2.09687,0.6677 4.32774,1.01232 6.62678,1.01232c2.36721,0 4.66625,-0.36855 6.80779,-1.08172l-0.51717,-0.87351zm-15.82294,-14.66545c-1.06019,0.1388 -2.09687,0.29915 -3.15472,0.41402c-2.45654,0.29915 -4.86842,0.5983 -7.32496,0.82804l-1.21769,0.11487c1.64553,4.69065 4.75558,8.68966 8.74481,11.40354l0.315,-0.96685c0.76635,-2.39079 1.57736,-4.73612 2.41188,-7.10298c0.38317,-1.14873 0.78985,-2.27592 1.21769,-3.42465c0.27034,-0.67009 -0.29384,-1.38087 -0.99202,-1.266zm15.82294,14.66545c-1.30702,-2.11558 -2.52471,-4.29816 -3.7424,-6.45921c-0.54067,-0.94292 -1.06019,-1.88583 -1.5562,-2.85029c-0.35967,-0.6677 -1.28586,-0.6677 -1.64553,0c-0.51952,0.98839 -1.06019,1.95523 -1.62202,2.89576c-1.23885,2.16105 -2.48005,4.3221 -3.78707,6.43767l-0.56418,0.91898c2.09687,0.6677 4.32774,1.01232 6.62678,1.01232c2.36721,0 4.66625,-0.36855 6.80779,-1.08172l-0.51717,-0.87351zm-3.04188,-43.77139l0.11284,0.89745c0.315,2.48173 0.54067,4.98979 0.76635,7.47153c0.08933,0.98839 0.18101,1.95523 0.24683,2.94362c0.04466,0.75864 0.87918,1.14873 1.48803,0.71317c0.76635,-0.57436 1.5562,-1.14873 2.36721,-1.70156c2.0287,-1.40241 4.0339,-2.80481 6.10727,-4.16175l0.76635,-0.48342c-3.22289,-2.98909 -7.32496,-5.03527 -11.85487,-5.67903zm17.19578,30.36954c-2.45654,-0.16034 -4.89192,-0.39009 -7.34847,-0.61984c-1.06019,-0.09094 -2.09687,-0.20581 -3.15472,-0.32308c-0.67702,-0.09094 -1.21769,0.5983 -0.96851,1.2636c0.38317,1.03386 0.74284,2.07011 1.10486,3.1279c0.78985,2.34532 1.60087,4.71218 2.3437,7.10298l0.24683,0.82804c3.92106,-2.73541 6.96529,-6.68896 8.56381,-11.33413l-0.7875,-0.04547zm-1.19418,-19.58823l-0.60885,0.6677c-1.69019,1.84036 -3.42505,3.60893 -5.16226,5.37988c-1.10486,1.14873 -2.29904,2.25199 -3.44856,3.37918c1.53269,0.39009 3.06539,0.80411 4.59808,1.2636c2.36721,0.68924 4.71092,1.35694 7.05462,2.13712l0.83452,0.27522c0.02351,-0.36855 0.02351,-0.75864 0.02351,-1.14873c0,-4.3891 -1.19418,-8.48145 -3.29106,-11.95397zm0,0l-0.60885,0.6677c-1.69019,1.84036 -3.42505,3.60893 -5.16226,5.37988c-1.10486,1.14873 -2.29904,2.25199 -3.44856,3.37918c1.53269,0.39009 3.06539,0.80411 4.59808,1.2636c2.36721,0.68924 4.71092,1.35694 7.05462,2.13712l0.83452,0.27522c0.02351,-0.36855 0.02351,-0.75864 0.02351,-1.14873c0,-4.3891 -1.19418,-8.48145 -3.29106,-11.95397zm1.19418,19.58823c-2.45654,-0.16034 -4.89192,-0.39009 -7.34847,-0.61984c-1.06019,-0.09094 -2.09687,-0.20581 -3.15472,-0.32308c-0.67702,-0.09094 -1.21769,0.5983 -0.96851,1.2636c0.38317,1.03386 0.74284,2.07011 1.10486,3.1279c0.78985,2.34532 1.60087,4.71218 2.3437,7.10298l0.24683,0.82804c3.92106,-2.73541 6.96529,-6.68896 8.56381,-11.33413l-0.7875,-0.04547zm-17.19578,-30.36954l0.11284,0.89745c0.315,2.48173 0.54067,4.98979 0.76635,7.47153c0.08933,0.98839 0.18101,1.95523 0.24683,2.94362c0.04466,0.75864 0.87918,1.14873 1.48803,0.71317c0.76635,-0.57436 1.5562,-1.14873 2.36721,-1.70156c2.0287,-1.40241 4.0339,-2.80481 6.10727,-4.16175l0.76635,-0.48342c-3.22289,-2.98909 -7.32496,-5.03527 -11.85487,-5.67903zm3.04188,43.77139c-1.30702,-2.11558 -2.52471,-4.29816 -3.7424,-6.45921c-0.54067,-0.94292 -1.06019,-1.88583 -1.5562,-2.85029c-0.35967,-0.6677 -1.28586,-0.6677 -1.64553,0c-0.51952,0.98839 -1.06019,1.95523 -1.62202,2.89576c-1.23885,2.16105 -2.48005,4.3221 -3.78707,6.43767l-0.56418,0.91898c2.09687,0.6677 4.32774,1.01232 6.62678,1.01232c2.36721,0 4.66625,-0.36855 6.80779,-1.08172l-0.51717,-0.87351zm0,0c-1.30702,-2.11558 -2.52471,-4.29816 -3.7424,-6.45921c-0.54067,-0.94292 -1.06019,-1.88583 -1.5562,-2.85029c-0.35967,-0.6677 -1.28586,-0.6677 -1.64553,0c-0.51952,0.98839 -1.06019,1.95523 -1.62202,2.89576c-1.23885,2.16105 -2.48005,4.3221 -3.78707,6.43767l-0.56418,0.91898c2.09687,0.6677 4.32774,1.01232 6.62678,1.01232c2.36721,0 4.66625,-0.36855 6.80779,-1.08172l-0.51717,-0.87351zm-3.04188,-43.77139l0.11284,0.89745c0.315,2.48173 0.54067,4.98979 0.76635,7.47153c0.08933,0.98839 0.18101,1.95523 0.24683,2.94362c0.04466,0.75864 0.87918,1.14873 1.48803,0.71317c0.76635,-0.57436 1.5562,-1.14873 2.36721,-1.70156c2.0287,-1.40241 4.0339,-2.80481 6.10727,-4.16175l0.76635,-0.48342c-3.22289,-2.98909 -7.32496,-5.03527 -11.85487,-5.67903zm17.19578,30.36954c-2.45654,-0.16034 -4.89192,-0.39009 -7.34847,-0.61984c-1.06019,-0.09094 -2.09687,-0.20581 -3.15472,-0.32308c-0.67702,-0.09094 -1.21769,0.5983 -0.96851,1.2636c0.38317,1.03386 0.74284,2.07011 1.10486,3.1279c0.78985,2.34532 1.60087,4.71218 2.3437,7.10298l0.24683,0.82804c3.92106,-2.73541 6.96529,-6.68896 8.56381,-11.33413l-0.7875,-0.04547zm-1.19418,-19.58823l-0.60885,0.6677c-1.69019,1.84036 -3.42505,3.60893 -5.16226,5.37988c-1.10486,1.14873 -2.29904,2.25199 -3.44856,3.37918c1.53269,0.39009 3.06539,0.80411 4.59808,1.2636c2.36721,0.68924 4.71092,1.35694 7.05462,2.13712l0.83452,0.27522c0.02351,-0.36855 0.02351,-0.75864 0.02351,-1.14873c0,-4.3891 -1.19418,-8.48145 -3.29106,-11.95397zm0,0l-0.60885,0.6677c-1.69019,1.84036 -3.42505,3.60893 -5.16226,5.37988c-1.10486,1.14873 -2.29904,2.25199 -3.44856,3.37918c1.53269,0.39009 3.06539,0.80411 4.59808,1.2636c2.36721,0.68924 4.71092,1.35694 7.05462,2.13712l0.83452,0.27522c0.02351,-0.36855 0.02351,-0.75864 0.02351,-1.14873c0,-4.3891 -1.19418,-8.48145 -3.29106,-11.95397zm1.19418,19.58823c-2.45654,-0.16034 -4.89192,-0.39009 -7.34847,-0.61984c-1.06019,-0.09094 -2.09687,-0.20581 -3.15472,-0.32308c-0.67702,-0.09094 -1.21769,0.5983 -0.96851,1.2636c0.38317,1.03386 0.74284,2.07011 1.10486,3.1279c0.78985,2.34532 1.60087,4.71218 2.3437,7.10298l0.24683,0.82804c3.92106,-2.73541 6.96529,-6.68896 8.56381,-11.33413l-0.7875,-0.04547zm-17.19578,-30.36954l0.11284,0.89745c0.315,2.48173 0.54067,4.98979 0.76635,7.47153c0.08933,0.98839 0.18101,1.95523 0.24683,2.94362c0.04466,0.75864 0.87918,1.14873 1.48803,0.71317c0.76635,-0.57436 1.5562,-1.14873 2.36721,-1.70156c2.0287,-1.40241 4.0339,-2.80481 6.10727,-4.16175l0.76635,-0.48342c-3.22289,-2.98909 -7.32496,-5.03527 -11.85487,-5.67903zm3.04188,43.77139c-1.30702,-2.11558 -2.52471,-4.29816 -3.7424,-6.45921c-0.54067,-0.94292 -1.06019,-1.88583 -1.5562,-2.85029c-0.35967,-0.6677 -1.28586,-0.6677 -1.64553,0c-0.51952,0.98839 -1.06019,1.95523 -1.62202,2.89576c-1.23885,2.16105 -2.48005,4.3221 -3.78707,6.43767l-0.56418,0.91898c2.09687,0.6677 4.32774,1.01232 6.62678,1.01232c2.36721,0 4.66625,-0.36855 6.80779,-1.08172l-0.51717,-0.87351zm-3.04188,-43.77139l0.11284,0.89745c0.315,2.48173 0.54067,4.98979 0.76635,7.47153c0.08933,0.98839 0.18101,1.95523 0.24683,2.94362c0.04466,0.75864 0.87918,1.14873 1.48803,0.71317c0.76635,-0.57436 1.5562,-1.14873 2.36721,-1.70156c2.0287,-1.40241 4.0339,-2.80481 6.10727,-4.16175l0.76635,-0.48342c-3.22289,-2.98909 -7.32496,-5.03527 -11.85487,-5.67903zm17.19578,30.36954c-2.45654,-0.16034 -4.89192,-0.39009 -7.34847,-0.61984c-1.06019,-0.09094 -2.09687,-0.20581 -3.15472,-0.32308c-0.67702,-0.09094 -1.21769,0.5983 -0.96851,1.2636c0.38317,1.03386 0.74284,2.07011 1.10486,3.1279c0.78985,2.34532 1.60087,4.71218 2.3437,7.10298l0.24683,0.82804c3.92106,-2.73541 6.96529,-6.68896 8.56381,-11.33413l-0.7875,-0.04547zm-1.19418,-19.58823l-0.60885,0.6677c-1.69019,1.84036 -3.42505,3.60893 -5.16226,5.37988c-1.10486,1.14873 -2.29904,2.25199 -3.44856,3.37918c1.53269,0.39009 3.06539,0.80411 4.59808,1.2636c2.36721,0.68924 4.71092,1.35694 7.05462,2.13712l0.83452,0.27522c0.02351,-0.36855 0.02351,-0.75864 0.02351,-1.14873c0,-4.3891 -1.19418,-8.48145 -3.29106,-11.95397zm0,0l-0.60885,0.6677c-1.69019,1.84036 -3.42505,3.60893 -5.16226,5.37988c-1.10486,1.14873 -2.29904,2.25199 -3.44856,3.37918c1.53269,0.39009 3.06539,0.80411 4.59808,1.2636c2.36721,0.68924 4.71092,1.35694 7.05462,2.13712l0.83452,0.27522c0.02351,-0.36855 0.02351,-0.75864 0.02351,-1.14873c0,-4.3891 -1.19418,-8.48145 -3.29106,-11.95397zm1.19418,19.58823c-2.45654,-0.16034 -4.89192,-0.39009 -7.34847,-0.61984c-1.06019,-0.09094 -2.09687,-0.20581 -3.15472,-0.32308c-0.67702,-0.09094 -1.21769,0.5983 -0.96851,1.2636c0.38317,1.03386 0.74284,2.07011 1.10486,3.1279c0.78985,2.34532 1.60087,4.71218 2.3437,7.10298l0.24683,0.82804c3.92106,-2.73541 6.96529,-6.68896 8.56381,-11.33413l-0.7875,-0.04547zm-17.19578,-30.36954l0.11284,0.89745c0.315,2.48173 0.54067,4.98979 0.76635,7.47153c0.08933,0.98839 0.18101,1.95523 0.24683,2.94362c0.04466,0.75864 0.87918,1.14873 1.48803,0.71317c0.76635,-0.57436 1.5562,-1.14873 2.36721,-1.70156c2.0287,-1.40241 4.0339,-2.80481 6.10727,-4.16175l0.76635,-0.48342c-3.22289,-2.98909 -7.32496,-5.03527 -11.85487,-5.67903zm0,0l0.11284,0.89745c0.315,2.48173 0.54067,4.98979 0.76635,7.47153c0.08933,0.98839 0.18101,1.95523 0.24683,2.94362c0.04466,0.75864 0.87918,1.14873 1.48803,0.71317c0.76635,-0.57436 1.5562,-1.14873 2.36721,-1.70156c2.0287,-1.40241 4.0339,-2.80481 6.10727,-4.16175l0.76635,-0.48342c-3.22289,-2.98909 -7.32496,-5.03527 -11.85487,-5.67903zm16.0016,10.78131l-0.60885,0.6677c-1.69019,1.84036 -3.42505,3.60893 -5.16226,5.37988c-1.10486,1.14873 -2.29904,2.25199 -3.44856,3.37918c1.53269,0.39009 3.06539,0.80411 4.59808,1.2636c2.36721,0.68924 4.71092,1.35694 7.05462,2.13712l0.83452,0.27522c0.02351,-0.36855 0.02351,-0.75864 0.02351,-1.14873c0,-4.3891 -1.19418,-8.48145 -3.29106,-11.95397zm0,0l-0.60885,0.6677c-1.69019,1.84036 -3.42505,3.60893 -5.16226,5.37988c-1.10486,1.14873 -2.29904,2.25199 -3.44856,3.37918c1.53269,0.39009 3.06539,0.80411 4.59808,1.2636c2.36721,0.68924 4.71092,1.35694 7.05462,2.13712l0.83452,0.27522c0.02351,-0.36855 0.02351,-0.75864 0.02351,-1.14873c0,-4.3891 -1.19418,-8.48145 -3.29106,-11.95397zm-16.0016,-10.78131l0.11284,0.89745c0.315,2.48173 0.54067,4.98979 0.76635,7.47153c0.08933,0.98839 0.18101,1.95523 0.24683,2.94362c0.04466,0.75864 0.87918,1.14873 1.48803,0.71317c0.76635,-0.57436 1.5562,-1.14873 2.36721,-1.70156c2.0287,-1.40241 4.0339,-2.80481 6.10727,-4.16175l0.76635,-0.48342c-3.22289,-2.98909 -7.32496,-5.03527 -11.85487,-5.67903zm0,0l0.11284,0.89745c0.315,2.48173 0.54067,4.98979 0.76635,7.47153c0.08933,0.98839 0.18101,1.95523 0.24683,2.94362c0.04466,0.75864 0.87918,1.14873 1.48803,0.71317c0.76635,-0.57436 1.5562,-1.14873 2.36721,-1.70156c2.0287,-1.40241 4.0339,-2.80481 6.10727,-4.16175l0.76635,-0.48342c-3.22289,-2.98909 -7.32496,-5.03527 -11.85487,-5.67903zm16.0016,10.78131l-0.60885,0.6677c-1.69019,1.84036 -3.42505,3.60893 -5.16226,5.37988c-1.10486,1.14873 -2.29904,2.25199 -3.44856,3.37918c1.53269,0.39009 3.06539,0.80411 4.59808,1.2636c2.36721,0.68924 4.71092,1.35694 7.05462,2.13712l0.83452,0.27522c0.02351,-0.36855 0.02351,-0.75864 0.02351,-1.14873c0,-4.3891 -1.19418,-8.48145 -3.29106,-11.95397zm0,0l-0.60885,0.6677c-1.69019,1.84036 -3.42505,3.60893 -5.16226,5.37988c-1.10486,1.14873 -2.29904,2.25199 -3.44856,3.37918c1.53269,0.39009 3.06539,0.80411 4.59808,1.2636c2.36721,0.68924 4.71092,1.35694 7.05462,2.13712l0.83452,0.27522c0.02351,-0.36855 0.02351,-0.75864 0.02351,-1.14873c0,-4.3891 -1.19418,-8.48145 -3.29106,-11.95397zm-16.0016,-10.78131l0.11284,0.89745c0.315,2.48173 0.54067,4.98979 0.76635,7.47153c0.08933,0.98839 0.18101,1.95523 0.24683,2.94362c0.04466,0.75864 0.87918,1.14873 1.48803,0.71317c0.76635,-0.57436 1.5562,-1.14873 2.36721,-1.70156c2.0287,-1.40241 4.0339,-2.80481 6.10727,-4.16175l0.76635,-0.48342c-3.22289,-2.98909 -7.32496,-5.03527 -11.85487,-5.67903zm0,0l0.11284,0.89745c0.315,2.48173 0.54067,4.98979 0.76635,7.47153c0.08933,0.98839 0.18101,1.95523 0.24683,2.94362c0.04466,0.75864 0.87918,1.14873 1.48803,0.71317c0.76635,-0.57436 1.5562,-1.14873 2.36721,-1.70156c2.0287,-1.40241 4.0339,-2.80481 6.10727,-4.16175l0.76635,-0.48342c-3.22289,-2.98909 -7.32496,-5.03527 -11.85487,-5.67903zm0,0l0.11284,0.89745c0.315,2.48173 0.54067,4.98979 0.76635,7.47153c0.08933,0.98839 0.18101,1.95523 0.24683,2.94362c0.04466,0.75864 0.87918,1.14873 1.48803,0.71317c0.76635,-0.57436 1.5562,-1.14873 2.36721,-1.70156c2.0287,-1.40241 4.0339,-2.80481 6.10727,-4.16175l0.76635,-0.48342c-3.22289,-2.98909 -7.32496,-5.03527 -11.85487,-5.67903z" fill="#0277bd"/>
    <path stroke="null" id="svg_3" d="m24.00372,61.63991c-0.51952,0.04547 -1.01318,0.04547 -1.60087,-0.25368c-0.69817,-0.29915 -1.35169,-0.48342 -1.93937,-0.27522c-0.60885,0.11487 -1.19418,0.27522 -1.77952,0.45949c-1.17303,0.39009 -2.32255,0.82804 -3.4039,1.60822c-1.10486,0.80411 -2.63755,0.52889 -3.42505,-0.5983c-0.76635,-1.12719 -0.51952,-2.68994 0.58534,-3.47251c0.56418,-0.41402 1.26236,-0.55283 1.89236,-0.43795c1.28586,0.27522 2.52471,0.18428 3.7424,0.02393c0.60885,-0.0694 1.21769,-0.18428 1.80303,-0.34462c0.60885,-0.04547 1.14952,-0.50496 1.64553,-1.07933c0.42784,-0.50496 0.92385,-0.71317 1.41986,-0.89745c0.20452,1.79728 0.54302,3.56585 1.06019,5.2674z" fill="none"/>
    <path stroke="null" id="svg_4" d="m40.75051,79.48112c-0.27034,0.50496 -0.58534,0.96445 -1.21769,1.31147c-0.65351,0.36855 -1.19418,0.80411 -1.39635,1.40241c-0.27034,0.55283 -0.51952,1.12719 -0.72168,1.70156c-0.40668,1.19659 -0.76635,2.39079 -0.78985,3.74773c-0.04466,1.37848 -1.19418,2.4602 -2.54587,2.41473c-1.35169,-0.04547 -2.41188,-1.1942 -2.36721,-2.57507c0.02351,-0.71317 0.33851,-1.33301 0.81101,-1.77096c0.99202,-0.91898 1.66904,-1.97677 2.29904,-3.03456c0.29384,-0.55283 0.56418,-1.10326 0.81101,-1.67762c0.315,-0.52889 0.29384,-1.24206 0.1575,-2.0007c-0.1575,-0.71317 0,-1.28753 0.18101,-1.81643c1.51154,0.91898 3.1124,1.69916 4.77909,2.29746z" fill="none"/>
    <path stroke="null" id="svg_5" d="m67.50447,89.29797c-0.92385,1.01232 -2.45654,1.07933 -3.47207,0.16034c-0.51952,-0.48342 -0.78985,-1.12719 -0.78985,-1.7925c-0.04466,-1.35694 -0.38317,-2.55114 -0.78985,-3.74773c-0.20217,-0.57436 -0.42784,-1.14873 -0.69817,-1.72309c-0.20217,-0.5983 -0.74284,-1.01232 -1.3987,-1.40241c-0.63,-0.34462 -0.94735,-0.82804 -1.26236,-1.35694c1.69019,-0.61984 3.31222,-1.42634 4.82375,-2.36686l0,0.02393c0.18101,0.5983 0.38317,1.17266 0.20217,1.95523c-0.1575,0.75864 -0.18101,1.44788 0.13634,2.0007c0.24683,0.55283 0.51952,1.12719 0.81101,1.65609c0.60885,1.07933 1.28586,2.16105 2.27553,3.05849c0.99672,0.93574 1.06489,2.50088 0.1622,3.53474z" fill="none"/>
    <path stroke="null" id="svg_6" d="m86.79948,63.11172c-0.67702,0.16034 -1.35169,0 -1.89236,-0.34462c-1.10486,-0.75864 -2.27553,-1.17266 -3.44856,-1.51728c-0.58534,-0.16034 -1.19418,-0.29915 -1.77952,-0.39009c-0.58534,-0.18428 -1.26236,0 -1.93937,0.32069c-0.67702,0.39009 -1.28586,0.32308 -1.91587,0.27522l-0.06817,0c0.51952,-1.72309 0.85568,-3.51798 1.03668,-5.35595l0.02351,0c0.58534,0.18428 1.17303,0.34462 1.69019,0.96445c0.51952,0.55283 1.06019,0.96445 1.66904,1.01232c0.60885,0.1388 1.19418,0.22975 1.80303,0.29915c1.23885,0.11487 2.45654,0.16034 3.76356,-0.1388c1.33053,-0.29915 2.63755,0.55283 2.92904,1.90737c0.29149,1.3354 -0.54302,2.6684 -1.8712,2.96755z" fill="none"/>
</svg>