<svg width="100" height="100" viewBox="0 0 100 100" fill="none" xmlns="http://www.w3.org/2000/svg">
    <path stroke="null" d="m61.96267,36.64543c-0.91922,-0.02704 -1.72354,0.38758 -2.13717,1.58638c-0.70474,2.01 1.04943,3.97496 1.67756,5.0025c0.43664,0.71206 1.00348,1.51427 1.31756,2.31648c0.20683,0.53178 0.23746,1.06358 0.41365,1.62242c0.43662,1.37907 1.13369,2.94741 1.69289,4.22733c0.28342,0.64897 0.5975,1.32499 0.95752,1.90185c0.22214,0.35152 0.5975,0.51378 0.65878,1.05458c-0.36769,0.61293 -0.39067,1.55933 -0.5975,2.3345c-0.93453,3.47021 -0.58218,7.78766 0.77367,10.34751c0.4213,0.79319 1.40947,2.47869 2.75765,1.83874c1.17966,-0.56784 0.91922,-2.32548 1.25627,-3.88481c0.0766,-0.34252 0.03063,-0.60391 0.18384,-0.83825l0,0.07211c0.35235,0.84725 0.71239,1.69453 1.07241,2.53278c0.80432,1.51427 2.22144,3.09164 3.41643,4.16424c0.62046,0.54982 1.11071,1.50525 1.91503,1.82974l0,-0.07211l-0.06128,0c-0.15319,-0.28843 -0.39832,-0.4056 -0.5975,-0.63095c-0.46727,-0.5408 -0.98815,-1.21681 -1.37117,-1.83874c-1.09539,-1.73961 -2.06058,-3.65049 -2.93383,-5.63345c-0.4213,-0.94643 -0.78899,-1.99198 -1.14136,-2.95643c-0.13788,-0.37856 -0.13788,-0.9374 -0.4213,-1.13571c-0.39067,0.71208 -0.95754,1.27992 -1.25627,2.11818c-0.47493,1.33401 -0.54386,2.96545 -0.72006,4.65098c-0.10723,0.04506 -0.06128,0.009 -0.11489,0.07211c-0.83495,-0.24337 -1.13371,-1.25288 -1.44012,-2.11818c-0.78132,-2.19028 -0.93453,-5.72358 -0.23746,-8.23836c0.17618,-0.65797 0.9805,-2.71306 0.65878,-3.31697c-0.15321,-0.60388 -0.67409,-0.9464 -0.95752,-1.40609c-0.36004,-0.56784 -0.71239,-1.31597 -0.95752,-1.97396c-0.64346,-1.71257 -1.24861,-3.69553 -1.93037,-5.42612c-0.32172,-0.82925 -0.8656,-1.65848 -1.31754,-2.39759c-0.49792,-0.81123 -1.04945,-1.40612 -1.44012,-2.39761c-0.13023,-0.3425 -0.32172,-0.90134 -0.11489,-1.26188c0.06128,-0.24337 0.15319,-0.34252 0.36002,-0.42365c0.3447,-0.31545 1.30989,0.09915 1.67758,0.27943c0.95752,0.46869 1.76184,0.91938 2.57381,1.55031c0.39067,0.30648 0.78134,0.89234 1.25625,1.0636l0.53622,0c0.85029,0.22535 1.79247,0.06309 2.57381,0.35152c1.39415,0.49576 2.64276,1.27092 3.7688,2.10918c3.45473,2.55982 6.28131,6.21029 8.20401,10.56381c0.31407,0.70306 0.45195,1.37907 0.72771,2.11818c0.54388,1.49625 1.24096,3.04656 1.79249,4.50676c0.54386,1.46918 1.08008,2.93838 1.85375,4.15522c0.40599,0.63995 1.98398,0.99147 2.69637,1.34301c0.49792,0.25237 1.3252,0.51376 1.79247,0.84727c0.91157,0.63995 1.78482,1.40609 2.63509,2.11815c0.42897,0.35154 1.73119,1.11769 1.80014,1.75764c-2.10654,-0.06309 -3.71517,0.16226 -5.08634,0.84727c-0.39067,0.1983 -1.0188,0.1983 -1.08008,0.77517c0.20683,0.26139 0.24512,0.65797 0.41365,0.98247c0.32939,0.62193 0.88092,1.46018 1.37882,1.90185c0.54388,0.47771 1.09541,0.99149 1.67758,1.41512c1.02647,0.7301 2.17549,1.15373 3.17131,1.89283c0.58216,0.44167 1.17199,0.99149 1.73886,1.47823c0.28342,0.25237 0.46727,0.63093 0.83495,0.78417l0,-0.07211c-0.19151,-0.28843 -0.23748,-0.68501 -0.41365,-0.98247l-0.78899,-0.92838c-0.75836,-1.18077 -1.72354,-2.22635 -2.75001,-3.09164c-0.81964,-0.69404 -2.65041,-1.63144 -2.98744,-2.7491l-0.06128,-0.07211c0.57449,-0.07211 1.25625,-0.3245 1.79247,-0.49576c0.9039,-0.27941 1.70056,-0.2073 2.62742,-0.48673c0.42132,-0.14422 0.84262,-0.28843 1.26392,-0.42363l0,-0.28843c-0.46727,-0.55884 -0.8043,-1.31597 -1.31754,-1.82974c-1.34054,-1.34301 -2.80362,-2.68602 -4.31267,-3.8037c-0.83495,-0.62193 -1.86909,-1.02753 -2.74999,-1.55031c-0.29876,-0.18028 -0.81964,-0.27041 -1.01882,-0.56784c-0.46727,-0.69406 -0.72004,-1.57738 -1.08008,-2.38859c-0.75069,-1.70355 -1.48606,-3.56034 -2.15249,-5.35401c-0.45195,-1.21684 -0.75071,-2.42463 -1.31756,-3.52429c-2.71936,-5.25486 -5.64552,-8.43664 -10.18033,-11.5553c-0.96518,-0.66699 -2.12188,-0.91938 -3.3475,-1.26188c-0.66643,-0.05409 -1.31754,-0.09915 -1.98396,-0.14422c-0.39834,-0.1983 -0.81964,-0.77517 -1.19499,-1.0636c-0.9422,-0.69404 -2.79595,-1.90185 -4.32798,-1.92889zm6.48814,7.64345c-0.43662,-0.00902 -0.75069,0.06309 -1.08008,0.14422l0,0.07211l0.06128,0c0.20683,0.50476 0.58218,0.82925 0.84262,1.2619c0.19916,0.49573 0.39067,0.99147 0.58983,1.48722l0.06128,-0.07211c0.36769,-0.30648 0.54386,-0.80221 0.54386,-1.55033c-0.15319,-0.18026 -0.17618,-0.41463 -0.29874,-0.63095c-0.17618,-0.29743 -0.50557,-0.45967 -0.72006,-0.71206zm-63.94693,29.26683c-0.58983,0.02704 -1.23329,0.16226 -1.93037,0.42365c-1.16434,0.41463 -1.73886,1.23484 -1.73886,2.90234l0,17.45014l3.92966,0l0,-17.02651l5.44636,14.55682c0.67409,1.8117 1.59331,2.46067 3.39345,2.46067c1.80781,0 2.68873,-0.64897 3.36282,-2.46067l5.44636,-14.18725l0,16.65695l3.922,0l0,-17.45014c0,-1.66751 -0.56685,-2.48771 -1.73886,-2.90234c-2.78829,-1.03656 -4.66502,-0.14422 -5.50764,2.10013l-5.59191,14.80018l-5.40808,-14.80018c-0.61281,-1.6855 -1.83844,-2.60489 -3.58494,-2.52378zm47.80699,0.00902c-1.54735,0 -6.36558,0.21632 -6.36558,4.61491l0,2.84828c0,2.01902 1.50905,3.66849 4.77993,4.07409c0.36769,0.02704 0.73537,0.06309 1.10306,0.06309c0,0 3.81475,-0.09013 3.922,-0.06309c2.20612,0 1.961,2.01902 1.961,2.30746l0,2.30746c0,0.31548 -0.06128,2.30746 -1.98398,2.30746l-9.78201,0l0,2.30746l9.82031,0c1.28691,0 2.53551,-0.31548 3.53133,-0.8653c1.65459,-0.89234 2.33635,-2.10015 2.33635,-3.68653l0,-3.29892c0,-3.54231 -3.73815,-3.68653 -5.883,-3.68653l-3.922,0c-1.5397,0 -1.77716,-1.09964 -1.961,-2.30746l0,-2.30746c0.18384,-0.91938 0.52855,-2.16324 1.89205,-2.30746l9.87394,0l0,-2.30746l-9.32241,0zm15.16711,0c-2.89553,0.46871 -3.91433,2.16324 -3.91433,4.61491l0,11.53728c0,2.24437 1.06474,3.59638 3.25555,4.29944c0.73537,0.24337 1.40182,0.34252 2.02995,0.34252l4.36628,-0.02704l2.56614,0l2.18316,2.30746l4.41225,0l-3.03343,-3.21782c1.42478,-0.69404 1.86909,-1.75764 1.86909,-3.74962l0,-11.49222c0,-2.45167 -1.35585,-4.1462 -4.25139,-4.61491l-9.48327,0zm15.72629,0l0,16.05304c0,2.78517 1.34052,4.35352 4.88718,4.669c0.32939,0.01802 0.66643,0.04506 0.99581,0.04506l9.80499,0l0,-2.30746l-9.06195,0c-2.02228,0 -2.70404,-1.00049 -2.70404,-2.42463l0,-16.03502l-3.922,0zm-13.38993,2.30746l5.04802,0c1.33287,0 2.22911,1.2619 2.42829,2.30746c0,0 0.03063,10.74409 0.03063,11.53728c0,0.79319 -0.37535,1.15373 -0.37535,1.15373l-1.06474,-1.15373l-4.4429,0l2.18314,2.30746l-3.80708,0c-1.36352,0 -2.12953,-1.18977 -2.32869,-2.30746l0,-11.30293c0,-1.22584 0.79666,-2.5418 2.32869,-2.5418zm-41.51803,4.61491c0.0766,0.09013 0,9.83373 0,10.02301c0.03065,2.01902 2.20612,3.78568 5.61489,3.82172l6.1511,0l0,0.15324c0,0.43265 0.26811,1.87481 -1.961,2.15422c-0.02298,0 -9.78201,0 -9.80499,0l0,2.30746l10.22629,0c1.73121,-0.06309 5.48468,-0.52278 5.4617,-4.05607c0,-0.06311 0.01532,-14.40358 0,-14.40358l-3.922,0l0,11.53728c-0.06128,0 -4.85653,0.01802 -5.82171,0c-1.89205,-0.03604 -2.05291,-1.30697 -2.02228,-1.79368l0,-9.7436l-3.922,0z" id="svg_1" fill="#ffffff"/>
</svg>