<svg width="100" height="100" viewBox="0 0 100 100" fill="none" xmlns="http://www.w3.org/2000/svg">
    <path stroke="null" id="svg_1" d="m36.00998,67.27649l-10.12254,7.35311c-0.37958,0.27355 -0.61268,0.78272 -0.61268,1.33249l0,14.71434c0,0.54979 0.2331,1.05624 0.61268,1.33249l10.12461,7.35853c0.37751,0.27355 0.84578,0.27355 1.22328,0l10.12254,-7.35853c0.37545,-0.27625 0.60855,-0.78272 0.60855,-1.33249l0,-14.71434c0,-0.54979 -0.2331,-1.05624 -0.61268,-1.33249l-10.12049,-7.35311c-0.18978,-0.13813 -0.40226,-0.20584 -0.61268,-0.20584c-0.21248,0 -0.4229,0.06771 -0.61268,0.20584m52.08356,13.24642l-1.68743,1.22416c-0.06396,0.04604 -0.10108,0.12999 -0.10108,0.22208l0,2.45374c0,0.09209 0.0392,0.17604 0.10108,0.22208l1.68743,1.22688c0.06396,0.04604 0.14028,0.04604 0.20422,0l1.68743,-1.22688c0.06189,-0.04604 0.10108,-0.12999 0.10108,-0.22208l0,-2.45374c0,-0.09209 -0.0392,-0.17604 -0.10314,-0.22208l-1.68743,-1.22416c-0.03095,-0.02438 -0.06601,-0.0352 -0.10108,-0.0352s-0.07013,0.01084 -0.10108,0.0352" fill="#388e3c"/>
    <path stroke="null" id="svg_2" d="m74.27019,51.68195l-4.92822,-3.61021c-0.15472,-0.11375 -0.3445,-0.11105 -0.49715,0.00812c-0.15265,0.11917 -0.24754,0.33313 -0.24754,0.56603l-0.00207,21.80744l-4.54452,-3.30146c-0.18978,-0.13813 -0.40226,-0.20584 -0.61268,-0.20584c-0.21041,0 -0.4229,0.06771 -0.61268,0.20584l0.00207,0l-10.12254,7.35311c-0.37958,0.27355 -0.61268,0.78272 -0.61268,1.32979l0,14.71434c0,0.54979 0.2331,1.05624 0.61268,1.33249l10.12461,7.35853c0.37751,0.27355 0.84578,0.27355 1.22328,0l10.12254,-7.35853c0.37545,-0.27355 0.60855,-0.78272 0.60855,-1.33249l0,-37.71888c0,-0.47667 -0.19804,-0.91541 -0.51366,-1.14833l0,0.00005zm-5.9514,35.46284l-4.60023,3.34478c-0.17122,0.12459 -0.3837,0.12459 -0.55491,0l-4.60228,-3.34478c-0.17534,-0.12459 -0.28055,-0.35749 -0.28055,-0.60666l0,-6.68956c0,-0.24916 0.10521,-0.47937 0.27849,-0.60666l4.60228,-3.34208l-0.00207,0c0.08664,-0.06229 0.18153,-0.09209 0.27849,-0.09209c0.09696,0 0.19185,0.0325 0.27849,0.09209l4.60023,3.34208c0.17329,0.12729 0.27849,0.36022 0.27849,0.60938l0,6.68956c0,0.24646 -0.10521,0.47937 -0.27642,0.60396l-0.00002,-0.00002z" fill="#37474f"/>
    <path stroke="null" id="svg_3" d="m36.00998,67.27649l-10.73522,23.39994c0,0.54979 0.2331,1.05624 0.61268,1.33249l10.12461,7.35853c0.37751,0.27355 0.84578,0.27355 1.22328,0l10.73109,-23.40536c0,-0.54979 -0.2331,-1.05624 -0.61268,-1.33249l-10.12049,-7.35311c-0.18978,-0.13813 -0.40226,-0.20584 -0.61268,-0.20584c-0.21248,0 -0.4229,0.06771 -0.61268,0.20584" fill="#2e7d32"/>
    <path stroke="null" id="svg_4" d="m36.00998,67.27649l-10.12254,7.35311c-0.37958,0.27355 -0.61268,0.78272 -0.61268,1.33249l10.73522,23.40536c0.37751,0.27355 0.84578,0.27355 1.22328,0l10.12254,-7.35853c0.37751,-0.27625 0.61061,-0.78272 0.61061,-1.33249l-10.73316,-23.39994c-0.18978,-0.13813 -0.40226,-0.20584 -0.61268,-0.20584c-0.21248,0 -0.4229,0.06771 -0.61268,0.20584" fill="#4caf50"/>
    <path stroke="null" id="svg_5" d="m98.92572,74.505l-10.12049,-7.35311c-0.18978,-0.13813 -0.40226,-0.20584 -0.61268,-0.20584c-0.21041,0 -0.4229,0.06771 -0.61268,0.20584l0.00207,0l-10.12254,7.35311c-0.37751,0.27355 -0.61268,0.79354 -0.61268,1.36229l0,14.65475c0,0.56603 0.23517,1.08874 0.61268,1.36229l10.12461,7.35853c0.37958,0.27625 0.84372,0.27625 1.22328,0l4.66829,-3.39353c0.42702,-0.31145 0.42495,-1.11583 -0.00412,-1.42458l-10.15762,-7.27728c-0.17122,-0.12729 -0.27849,-0.36291 -0.27849,-0.6175l0,-6.67875c0,-0.24916 0.10314,-0.47937 0.26818,-0.59854l4.61053,-3.34748l-0.00207,0c0.08664,-0.06229 0.18153,-0.09209 0.27849,-0.09209c0.09696,0 0.19185,0.0325 0.27849,0.09209l4.61053,3.3502c0.16504,0.11917 0.26818,0.34937 0.26818,0.59854l0,5.44914c0,0.23292 0.09489,0.44958 0.24961,0.56603c0.15472,0.11375 0.3445,0.11375 0.49922,-0.0027l4.94678,-3.7727c0.3053,-0.23292 0.4951,-0.66354 0.4951,-1.12937l0,-5.09165c0,-0.57145 -0.23517,-1.09417 -0.61268,-1.36771zm-76.32652,0l-10.12049,-7.35311c-0.18978,-0.13813 -0.40226,-0.20584 -0.61268,-0.20584c-0.21041,0 -0.4229,0.06771 -0.61268,0.20584l0.00207,0l-10.12254,7.35311c-0.37751,0.27355 -0.61268,0.79354 -0.61268,1.36229l0,20.21767c0,0.23292 0.09489,0.44958 0.24961,0.56603c0.15472,0.11375 0.3445,0.11375 0.49922,-0.0027l4.94678,-3.7727c0.3053,-0.23292 0.49303,-0.66354 0.49303,-1.12937l0,-11.89769c0,-0.24916 0.10314,-0.47937 0.26818,-0.59854l4.61053,-3.34748l0,0c0.08664,-0.06229 0.18153,-0.09209 0.27849,-0.09209c0.09696,0 0.19185,0.0325 0.27849,0.09209l4.61053,3.3502c0.16504,0.11917 0.26818,0.34937 0.26818,0.59854l0,11.89769c0,0.46582 0.18773,0.89645 0.4951,1.12937l4.94678,3.7727c0.15472,0.11645 0.3445,0.11645 0.49922,0.0027c0.15265,-0.11917 0.24754,-0.33583 0.24754,-0.56876l0,-20.21495c0,-0.56876 -0.23517,-1.09147 -0.61268,-1.36499l-0.00002,-0.00002z" fill="#37474f"/>
</svg>