<svg width="100" height="100" viewBox="0 0 100 100" fill="none" xmlns="http://www.w3.org/2000/svg">
    <path stroke="null" id="svg_1" d="m50.17938,43.02843c-26.97295,0 -48.84744,12.57267 -48.84744,28.10454c0,15.53186 21.87449,28.11108 48.84744,28.11108c26.97295,0 48.84744,-12.57922 48.84744,-28.11108c0,-15.53186 -21.87449,-28.10454 -48.84744,-28.10454zm0,2.80522c26.16391,0 46.28343,12.05546 46.28343,25.29932c0,13.24384 -20.13479,25.30583 -46.28343,25.30583c-26.16391,0 -46.28343,-12.06199 -46.28343,-25.30583c0,-13.24384 20.13479,-25.29932 46.28343,-25.29932zm-5.93301,5.57134l-4.93722,27.85666l5.50966,0l2.84427,-15.96375c4.4848,0 6.34024,-0.19538 7.15538,0.76326c0.84568,0.99204 0.4123,2.0802 -1.91406,15.20049l5.58717,0c2.41795,-13.5645 3.48695,-16.44278 1.25218,-18.69071c-2.12792,-2.14773 -6.53706,-1.76794 -11.29359,-1.76794l1.31183,-7.39801l-5.51561,0l0.00002,0zm-23.10593,7.41755l-4.94318,27.87623l5.54543,0l1.31179,-7.40453c6.20668,0 10.06226,0.4933 13.62507,-3.1575c3.94138,-3.9648 4.97032,-11.02067 2.15854,-14.5546c-1.46543,-1.85046 -3.82469,-2.75959 -7.0242,-2.75959l-10.67346,0l0,-0.00002zm43.32588,0l-4.94916,27.87623l5.55737,0l1.31179,-7.40453c6.52419,0 10.13551,0.41315 13.62505,-3.1575c3.94138,-3.9648 4.97035,-11.02067 2.15856,-14.5546c-1.46543,-1.85046 -3.82472,-2.75959 -7.02423,-2.75959l-10.67939,0l0,-0.00002zm-34.63207,4.39054c3.46463,0.10678 5.44728,0.90939 4.60925,5.66917c-1.1937,6.69373 -5.40311,6.00192 -10.58398,6.00192l2.06908,-11.66457c1.43489,0 2.75077,-0.04211 3.90565,-0.00651zm43.33182,0c3.46894,0.10678 5.42939,0.90939 4.59135,5.66917c-1.20898,6.7906 -5.54049,6.00192 -10.58398,6.00192l2.06908,-11.66457c1.44253,0 2.76723,-0.04211 3.92355,-0.00651z" fill="#ffffff"/>
</svg>