<svg width="100" height="100" viewBox="0 0 100 100" fill="none" xmlns="http://www.w3.org/2000/svg">
    <path stroke="null" fill="#0277BD" d="m51.2751,4.883c-3.94805,0.01183 -6.68502,0.33594 -9.99325,0.86823c-9.76983,1.58505 -11.54962,4.91366 -11.54962,11.04805l0,9.37547l22.85043,0l0,4.7315l-23.71874,0l-11.04437,0c-6.69264,0 -12.54996,2.93826 -14.40592,9.9811c-2.09716,8.08377 -2.1911,13.14647 0,21.58747c1.663,6.29526 5.32669,11.01493 12.02186,11.01493l9.22142,0l0,-12.07479c0,-7.01681 6.81958,-13.94846 14.63443,-13.94846l18.37174,0c6.40574,0 12.69468,-4.40503 12.69468,-10.35489l0,-20.31233c0,-5.77006 -4.46599,-10.08519 -10.70923,-11.05278c0.15488,-0.01419 -4.45837,-0.87769 -8.37341,-0.8635zm-12.65406,9.463c2.08447,0 3.8084,1.60161 3.8084,3.55336c0,1.97067 -1.72394,3.54389 -3.8084,3.54389c-2.12509,0 -3.8084,-1.57086 -3.8084,-3.54389c0,-1.94465 1.68331,-3.55336 3.8084,-3.55336z" id="svg_1"/>
    <path stroke="null" fill="#FFC107" d="m48.81487,94.78149c3.94805,-0.01183 6.68502,-0.33594 9.99325,-0.86823c9.76983,-1.58505 11.54962,-4.91366 11.54962,-11.04805l0,-9.37547l-22.85043,0l0,-4.7315l23.72128,0l11.04437,0c6.69264,0 12.54996,-2.93826 14.40592,-9.9811c2.09716,-8.08377 2.1911,-13.14647 0,-21.58747c-1.66554,-6.29526 -5.32923,-11.01493 -12.0244,-11.01493l-9.22142,0l0,12.07479c0,7.01681 -6.81958,13.94846 -14.63443,13.94846l-18.37174,0c-6.40574,0 -12.69468,4.40503 -12.69468,10.35489l0,20.31233c0,5.77006 4.46599,10.08519 10.70923,11.05278c-0.15488,0.01419 4.45837,0.87769 8.37341,0.8635zm12.6566,-9.463c-2.08447,0 -3.8084,-1.60161 -3.8084,-3.55336c0,-1.97067 1.72394,-3.54389 3.8084,-3.54389c2.12509,0 3.8084,1.57086 3.8084,3.54389c0,1.94465 -1.68585,3.55336 -3.8084,3.55336z" id="svg_2"/>
</svg>