<svg width="100" height="100" viewBox="0 0 100 100" fill="none" xmlns="http://www.w3.org/2000/svg">
    <path stroke="null" id="svg_1" d="m50.05421,75.93803c-27.72554,0 -49.43313,-9.69701 -49.43313,-22.03866c0,-12.34165 21.70759,-22.03866 49.43313,-22.03866c27.72554,0 49.43313,9.69701 49.43313,22.03866c0,12.34165 -21.70759,22.03866 -49.43313,22.03866zm0,-39.66958c-27.08076,0 -45.1346,9.03585 -45.1346,17.63093c0,8.59508 18.05384,17.63093 45.1346,17.63093s45.1346,-9.03585 45.1346,-17.63093c0,-8.59508 -18.05384,-17.63093 -45.1346,-17.63093z" fill="#80deea"/>
    <path stroke="null" id="svg_2" d="m30.92573,99.29901c-2.14927,0 -3.86868,-0.44077 -5.58809,-1.54271c-10.53141,-6.17082 -7.73736,-30.19296 6.01795,-54.87626l0,0c6.4478,-11.4601 14.40009,-21.15711 22.13744,-27.32794c8.38214,-6.6116 15.90457,-8.59508 21.06281,-5.50966c5.37317,3.08541 7.30751,10.79894 6.01795,21.59788c-1.28956,10.13778 -5.58809,22.03866 -12.03589,33.49876c-6.4478,11.4601 -14.40009,21.15711 -22.13744,27.32794c-5.58809,4.40773 -10.96126,6.83198 -15.47472,6.83198zm38.25694,-86.39154c-3.43883,0 -7.95229,1.98348 -12.8956,5.95044c-7.30751,5.95044 -14.82994,15.20667 -21.06281,26.226l0,0c-13.54038,24.02214 -14.82994,44.73848 -7.73736,48.92582c3.65375,2.20387 9.6717,0.22039 16.33443,-5.06889c7.30751,-5.95044 14.82994,-15.20667 21.06281,-26.226c6.23287,-11.01933 10.31648,-22.25904 11.60604,-31.73567c1.07463,-8.81546 -0.21493,-14.98629 -3.86868,-17.19015c-1.07463,-0.44077 -2.14927,-0.88155 -3.43883,-0.88155z" fill="#80deea"/>
    <path stroke="null" id="svg_3" d="m69.3976,99.57109c-10.74633,0 -26.22105,-13.44358 -37.82709,-34.38031c-13.97023,-24.6833 -16.76428,-48.70543 -6.23287,-54.87626l0,0c10.53141,-6.17082 29.44495,8.1543 43.41518,32.8376c6.4478,11.4601 10.74633,23.36098 12.03589,33.49876c1.50449,10.79894 -0.64478,18.29209 -6.01795,21.59788c-1.71941,0.88155 -3.43883,1.32232 -5.37317,1.32232zm-41.9107,-85.50999c-7.09258,4.18734 -5.80302,24.90368 7.73736,48.92582c13.54038,24.02214 30.30466,35.48224 37.39724,31.29489c3.65375,-2.20387 4.94331,-8.37469 3.86868,-17.19015c-1.28956,-9.47662 -5.37317,-20.71634 -11.60604,-31.73567c-13.54038,-24.02214 -30.30466,-35.48224 -37.39724,-31.29489l0,0z" fill="#80deea"/>
    <circle stroke="null" id="svg_4" fill="#80deea" r="8.59707" cy="53.89937" cx="50.05421"/>
</svg>