<svg width="100" height="100" viewBox="0 0 100 100" fill="none" xmlns="http://www.w3.org/2000/svg">
    <path stroke="null" id="svg_1" d="m78.87289,76.18677c0,-12.28349 -12.37989,-22.23735 -27.91543,-22.23735s-27.91543,9.95386 -27.91543,22.23735s12.37989,22.23735 27.91543,22.23735s27.91543,-9.95386 27.91543,-22.23735z" fill="#47667f"/>
    <path stroke="null" id="svg_2" d="m77.65918,75.12785c0,-11.22456 -11.8944,-20.33129 -26.70172,-20.33129s-26.70172,9.10672 -26.70172,20.33129s11.8944,20.33129 26.70172,20.33129s26.70172,-9.10672 26.70172,-20.33129z" fill="#c5cad5"/>
    <path stroke="null" id="svg_3" d="m3.6226,22.18179l46.12115,23.29627l0,46.59253l-43.69372,-27.53195l-2.42743,-42.35685z" fill="#c5cad5"/>
    <path stroke="null" id="svg_4" d="m95.8649,22.18179l-46.12115,23.29627l0,46.59253l43.69372,-27.53195l2.42743,-42.35685z" fill="#6d83b3"/>
    <path stroke="null" id="svg_5" d="m50.95746,95.45914c0.72823,0 1.21371,0 1.94194,0l23.7888,-15.03668c0.48549,-1.69427 0.97097,-3.38855 0.97097,-5.08282c0,-0.21178 0,-0.42357 0,-0.63535l-27.91543,17.36631l-25.488,-16.0956c0.24274,2.11784 0.72823,4.23568 1.6992,6.35353l20.14766,12.70705c1.6992,0.21178 3.15566,0.42357 4.85486,0.42357z" fill="#5a6e91"/>
    <path stroke="null" id="svg_6" d="m3.6226,22.18179l46.12115,23.29627l46.12115,-23.29627l-46.12115,-19.06058l-46.12115,19.06058z" fill="#eaf4f8"/>
    <path stroke="null" id="svg_7" d="m19.64363,21.97001l30.10012,15.03668l30.10012,-15.03668l-30.10012,-12.49527l-30.10012,12.49527zm68.93898,38.33295l1.45646,-27.32017l-33.01303,16.73096l0,30.49693l31.55658,-19.90772zm-77.67773,0l-1.45646,-27.32017l33.01303,16.73096l0,30.49693l-31.55658,-19.90772z" fill="#34495e"/>
    <path stroke="null" id="svg_8" d="m63.58009,35.73598l-7.52503,-4.23568l4.12663,-8.0478l-11.16617,3.38855l4.12663,-7.83602l-18.6912,5.29461l7.28229,-8.68315l-4.61212,-2.11784l0.97097,-1.69427l7.28229,2.96498l-4.61212,5.50639l16.50652,-4.87104l-3.64114,7.83602l11.16617,-3.38855l-5.58309,10.801l5.82583,3.38855l-1.45646,1.69427z" fill="#eaf4f8"/>
    <path stroke="null" id="svg_9" d="m61.3954,59.03225c0.24274,1.05892 -1.21371,5.92996 -1.21371,6.56531c0,0.63535 -0.48549,1.05892 -1.21371,1.27071c-0.24274,-1.90606 -0.48549,-3.60033 -0.72823,-5.50639c0,-0.42357 0.48549,-0.63535 0.97097,-0.84714c0.24274,1.48249 0.24274,2.96498 0.48549,4.44747c0,0 0.72823,-3.17676 0.97097,-4.87104c0,-0.42357 0.24274,-0.84714 0.72823,-1.05892zm24.27429,-10.58921c-0.24274,0.63535 -0.24274,1.69427 -1.21371,2.11784c0,-0.63535 0.24274,-1.05892 0.48549,-1.48249c0.48549,-0.84714 0.48549,-1.90606 0,-2.7532c-0.24274,-0.42357 0.24274,-0.63535 0.48549,-0.84714c0.48549,-0.21178 0.24274,0.42357 0.72823,0.42357c0.48549,-0.42357 0.24274,-1.27071 0.97097,-1.48249c0.24274,0.21178 0,0.42357 -0.24274,0.63535c-0.48549,1.05892 -0.72823,2.11784 0,3.17676c0.24274,0.42357 0,0.63535 -0.48549,0.84714c0,0 -0.24274,0.21178 -0.48549,-0.21178c-0.24274,0 -0.24274,-0.21178 -0.24274,-0.42357zm-23.7888,16.0956c0,-1.27071 0.24274,-2.54141 0.24274,-3.81212c0,-0.42357 0.24274,-0.84714 0.72823,-0.84714c0,1.48249 -0.24274,2.96498 -0.24274,4.44747c0,0.42357 -0.24274,0.42357 -0.48549,0.63535c-0.24274,0 -0.24274,-0.42357 -0.24274,-0.42357zm1.21371,-6.7771c0.48549,0.21178 0,0.84714 0,1.05892c0,0.21178 -0.24274,0.42357 -0.48549,0.42357c-0.24274,0 -0.24274,-0.21178 -0.24274,-0.42357c-0.24274,-0.21178 0.24274,-1.27071 0.72823,-1.05892zm-23.54606,6.14174c-0.97097,-0.63535 -1.6992,-1.05892 -2.91291,-1.69427c0.24274,0.84714 0.48549,1.48249 1.21371,1.90606c0.72823,0.42357 1.21371,0.84714 1.94194,1.27071c0.24274,0.21178 0.48549,0.21178 0.24274,0.63535c-0.24274,0.42357 -0.48549,0.21178 -0.72823,0c-2.18469,-1.05892 -3.3984,-2.54141 -3.64114,-4.65925c0,-0.21178 0,-0.42357 0,-0.63535c0,-0.42357 0,-1.05892 0.72823,-1.27071c0.48549,-0.21178 0.97097,0.21178 1.21371,0.42357c0.48549,0.42357 1.21371,0.63535 1.6992,1.05892c0.24274,0.21178 0.48549,0.42357 0.24274,0.63535c-0.24274,0.42357 -0.48549,0 -0.72823,0c-0.48549,-0.21178 -0.72823,-0.42357 -1.21371,-0.63535c-0.24274,-0.21178 -0.97097,-0.63535 -0.97097,0c0,0.63535 0,0.63535 0.48549,0.84714c0.72823,0.42357 1.45646,0.84714 2.18469,1.48249c0.48549,0 0.48549,0 0.24274,0.63535zm-3.64114,-0.84714c0.24274,0.21178 -0.24274,0.63535 -0.48549,0.42357c-0.97097,-0.63535 -1.6992,-1.05892 -2.67017,-1.69427c-0.48549,-0.21178 -0.48549,-0.63535 -0.48549,-0.84714c-0.24274,-1.48249 -0.24274,-2.96498 -0.48549,-4.44747c0,-0.21178 0,-0.21178 0.24274,-0.21178c0.24274,0.21178 0.48549,0.42357 0.48549,0.63535c0,0.84714 0.24274,1.69427 0.24274,2.54141c0.24274,1.48249 0.48549,1.90606 1.6992,2.32963c0.48549,0.42357 0.72823,0.63535 1.45646,1.27071zm27.91543,0.63535c0,-1.48249 0.24274,-2.96498 0.24274,-4.44747c0,-0.42357 0,-0.42357 0.72823,-0.42357c0.24274,0 0.48549,-0.84714 0.97097,-1.05892c0,0.42357 0,0.84714 -0.48549,1.27071c-0.48549,0.42357 -0.48549,0.84714 -0.48549,1.27071c0,0.84714 -0.24274,1.48249 -0.24274,2.32963c0.24274,0.63535 0,0.84714 -0.72823,1.05892zm13.35086,-9.10672c-0.24274,0 -0.48549,0 -0.24274,-0.21178c0,-1.05892 0.24274,-4.23568 0.48549,-4.87104c0,-0.21178 0.24274,-0.63535 -0.24274,-0.63535c-0.24274,0 -0.48549,0.21178 -0.48549,0.42357c-0.24274,0.63535 -0.72823,5.92996 -0.24274,6.56531c0.24274,0.21178 0.72823,-0.63535 0.72823,-1.27071zm-8.98149,1.69427c0,0 -0.48549,0.42357 -0.48549,0c0,-0.42357 0,-0.63535 0,-1.05892c-0.48549,0 -0.48549,0.21178 -0.48549,0.63535c0,0.63535 0,1.05892 -0.72823,1.69427c0,0 -0.24274,0.42357 0,0.42357c0.48549,0.84714 0.24274,1.48249 0.24274,2.32963c0,0.42357 -0.24274,1.27071 0.24274,1.48249c0.72823,0.21178 1.21371,-1.27071 1.21371,-1.27071c-0.48549,0 -0.48549,-0.63535 -0.48549,-1.05892c0,-0.84714 -0.24274,-1.69427 0.72823,-2.32963c0,-0.21178 -0.24274,-0.42357 -0.24274,-0.84714zm14.56457,-9.31851c-1.21371,0.84714 -1.45646,2.32963 -1.45646,3.81212c0,0.63535 0,1.69427 1.21371,1.27071c1.94194,-0.84714 1.6992,-2.7532 1.6992,-4.44747c0,-1.05892 -0.48549,-1.27071 -1.45646,-0.63535zm-0.24274,3.81212c-0.24274,0 -0.24274,-0.63535 -0.24274,-0.84714c0,-0.84714 0.24274,-2.32963 0.97097,-2.32963c0.24274,0 0.24274,0.21178 0.24274,0.42357c0,0.84714 -0.24274,2.7532 -0.97097,2.7532zm-60.20024,4.44747c-0.48549,-0.21178 -0.72823,-0.42357 -0.97097,-0.84714c-0.72823,-1.05892 -1.21371,-2.11784 -1.94194,-3.17676c0.72823,0.42357 1.6992,0.84714 1.94194,0.63535c0.48549,-0.42357 -0.48549,-1.27071 -0.72823,-1.48249c-0.48549,-0.21178 -0.97097,-0.63535 -1.6992,-1.05892c0,0.63535 0.24274,2.7532 0.24274,3.60033c0,0.21178 0.24274,0.42357 -0.24274,0.42357c-0.24274,0 -0.48549,-0.21178 -0.48549,-0.42357c-0.24274,-0.84714 -0.72823,-4.87104 -0.48549,-5.08282c1.6992,1.05892 3.88389,1.90606 4.12663,4.23568c0,0.84714 -0.24274,1.27071 -1.21371,1.27071c0.24274,0.63535 0.72823,1.05892 0.97097,1.69427c0.48549,-0.21178 0.97097,0 0.48549,0.21178zm8.98149,4.65925c-0.72823,-0.42357 -1.21371,-0.84714 -1.94194,-1.27071c-0.97097,-0.84714 -1.45646,-1.90606 -1.45646,-2.96498c0,-0.63535 0.48549,-0.84714 1.21371,-0.42357c0.48549,0.21178 0.97097,0.63535 1.45646,0.84714c0.24274,0 0.24274,0.42357 0.48549,0c0.24274,-0.21178 0.24274,-0.42357 -0.24274,-0.63535c-0.72823,-0.42357 -1.45646,-0.84714 -2.18469,-1.27071c-0.48549,-0.21178 -0.97097,-0.42357 -1.21371,0.21178c-0.48549,1.48249 0,2.7532 0.72823,4.0239c0.72823,1.05892 1.6992,1.48249 2.67017,2.32963c0,0 0.48549,0.42357 0.72823,0c0.24274,-0.42357 0.24274,-0.63535 -0.24274,-0.84714z" fill="#ecf0f1"/>
    <path stroke="null" id="svg_10" d="m17.45894,47.80768c-0.72823,-1.27071 -3.3984,-2.54141 -3.3984,-2.7532c-0.97097,-0.63535 -1.45646,-0.42357 -1.6992,0.63535c0,0.84714 0.24274,1.48249 0.48549,2.32963c0.48549,1.69427 1.94194,2.54141 3.3984,3.38855c1.21371,0.63535 1.6992,0.42357 1.6992,-0.63535c0.24274,-1.05892 0,-2.54141 -0.48549,-2.96498zm-0.24274,2.54141c-0.24274,0.21178 -0.24274,0.42357 -0.72823,0.21178c-1.6992,-0.42357 -3.3984,-2.32963 -3.3984,-4.0239c0,-0.21178 0,-0.63535 0.24274,-0.84714c0.48549,-0.21178 0.72823,0 0.97097,0.21178c1.45646,0.84714 2.67017,1.69427 2.91291,3.38855c0.24274,0.63535 0.24274,0.84714 0,1.05892zm63.59864,0.21178c-0.48549,-0.63535 -0.24274,-1.27071 0,-1.90606c0,-0.21178 0.48549,-1.48249 -0.72823,-1.48249c-0.72823,0 -1.6992,0.84714 -1.6992,1.48249c-0.24274,1.05892 -0.48549,5.92996 -0.48549,5.92996c0.72823,-0.42357 1.45646,-0.84714 1.94194,-1.48249c0.72823,-0.63535 1.21371,-1.69427 0.97097,-2.54141zm-0.97097,1.05892c0,0.63535 -0.24274,1.05892 -0.97097,1.48249c0,-0.63535 0,-1.05892 0,-1.48249c0,-0.42357 0.24274,-0.63535 0.72823,-0.63535c0.24274,0 0.24274,0.42357 0.24274,0.63535zm0,-2.7532c0,0.42357 -0.24274,0.84714 -0.97097,1.27071c0,-0.63535 0,-1.05892 0,-1.48249c0,-0.21178 0.24274,-0.42357 0.48549,-0.42357c0.72823,0.21178 0.72823,0.42357 0.48549,0.63535zm-8.25326,5.29461c-0.72823,0 -0.72823,0.63535 -0.72823,0.84714c0,0 -0.24274,3.38855 -0.24274,3.60033c-0.24274,0.21178 -0.24274,0.42357 -0.48549,0.42357c-0.24274,0 -0.24274,-0.42357 -0.24274,-0.63535c0,-0.84714 0,-1.48249 0.24274,-2.32963c0,-0.21178 0.24274,-0.84714 -0.24274,-0.63535c-0.72823,0 -0.72823,0.63535 -0.72823,1.05892c0,1.05892 -0.24274,1.90606 -0.24274,2.96498c0,0.63535 0.24274,1.27071 0.97097,0.84714c0.24274,-0.21178 0.72823,-0.63535 0.72823,-1.05892c0.97097,0.21178 0.72823,-0.63535 0.97097,-1.05892c0.24274,-1.05892 0.24274,-2.11784 0.24274,-3.17676c0,-0.21178 0,-0.63535 -0.24274,-0.84714zm-45.63566,0c-0.24274,-0.63535 -0.72823,-1.48249 -0.97097,-2.11784c0,-0.21178 -0.24274,-0.42357 -0.48549,-0.42357c-0.24274,0 -0.24274,0.21178 -0.48549,0.42357l-1.45646,3.38855c0,0.21178 0.48549,0.63535 0.97097,0.21178c0.24274,-0.21178 0.72823,-2.11784 1.21371,-2.96498l1.21371,2.7532c-0.72823,0 -1.45646,-0.84714 -1.6992,-0.63535c-0.48549,0.42357 0.97097,1.27071 1.6992,1.69427c0.48549,0.21178 0.72823,1.05892 0.97097,1.27071c0,0.21178 0.48549,0.84714 0.97097,0.42357c-0.72823,-1.27071 -1.21371,-2.54141 -1.94194,-4.0239zm47.82035,-1.69427c-1.45646,0.84714 -1.45646,1.69427 -0.97097,1.69427c0.24274,-0.21178 0.24274,-0.42357 0.48549,-0.42357c0.24274,-0.21178 0.48549,-0.42357 0.72823,-0.21178s0.24274,0.63535 0,0.84714c-0.24274,0.21178 -0.24274,0.21178 -0.48549,0.42357c-0.72823,0.63535 -1.21371,1.69427 -1.21371,2.54141c0,0.21178 0,0.63535 0.24274,0.63535c0.24274,0 0.48549,0 0.72823,-0.21178c0.24274,-0.42357 0.72823,-0.84714 1.45646,-1.05892c0,-1.27071 0.24274,-2.32963 0.24274,-4.0239c0,-0.63535 -0.72823,-0.42357 -1.21371,-0.21178zm-0.24274,4.23568c-0.24274,0 -0.24274,0 -0.24274,0c0,-0.63535 0.24274,-0.84714 0.97097,-1.27071c0,0 0,0 0,0c0,0.42357 -0.24274,0.84714 -0.72823,1.27071z" fill="#ecf0f1"/>
</svg>