<svg width="100" height="100" viewBox="0 0 100 100" fill="none" xmlns="http://www.w3.org/2000/svg">
    <path stroke="null" fill="#ffffff" d="m45.27789,43.90054c-7.43534,0 -12.42217,7.4951 -14.11434,11.70691l-8.80703,24.14348l-12.15295,-32.58374c-1.33323,-3.06765 -4.333,-4.1621 -6.69181,-2.47072c-2.38442,1.70794 -3.24334,5.58818 -1.92294,8.67242l16.40904,42.45005c0.87175,2.00645 2.49981,3.25006 4.28175,3.26666c1.71783,0.0166 3.41,-1.21052 4.30736,-3.20034l13.20414,-34.19214c0.02564,-0.04975 2.19212,-5.05754 5.48676,-5.05754c3.98687,0 4.80731,4.21185 4.9227,6.36749l0,29.71504c0,1.30995 0.30767,2.53707 0.83328,3.56514c0.17945,0.33167 0.38456,0.64671 0.6025,0.94519c0.67944,0.86228 1.53834,1.47581 2.49981,1.72453c0.30767,0.08291 0.6538,0.13266 0.98711,0.13266c0.33331,0 0.67944,-0.04975 0.98711,-0.13266c1.28197,-0.3316 2.38442,-1.32655 3.10233,-2.66973c0.16669,-0.34823 0.3205,-0.71299 0.44869,-1.09442c0.24358,-0.74618 0.38458,-1.59187 0.38458,-2.47072l0,-29.71504c0,-3.51538 2.20497,-6.36749 4.9227,-6.36749c2.71777,0 4.9227,2.85214 4.9227,6.36749l0,29.71504c0,3.51542 2.20497,6.36749 4.9227,6.36749c0.33331,0 0.67944,-0.04975 0.98711,-0.13266c1.28197,-0.3316 2.38442,-1.32655 3.10233,-2.66973c0.16669,-0.34823 0.3205,-0.71299 0.44869,-1.09442c0.24358,-0.74618 0.38458,-1.59187 0.38458,-2.47072l0,-29.71504c0,-3.51538 2.20497,-6.36749 4.9227,-6.36749c2.71777,0 4.9227,2.85214 4.9227,6.36749l0,29.71504c0,3.51542 2.20497,6.36749 4.9227,6.36749c2.71777,0 4.9227,-2.85208 4.9227,-6.36749l0,-29.71504c0,-10.52962 -6.6277,-19.10251 -14.76812,-19.10251c-3.79459,0 -7.2302,1.92354 -9.84542,4.97463c-2.61517,-3.05108 -6.05084,-4.97463 -9.84542,-4.97463c-3.78176,0 -7.19178,1.89035 -9.79412,4.92488c-2.33317,-2.8687 -5.53806,-4.92488 -9.89672,-4.92488l0.00009,0z" id="svg_1"/>
</svg>